<svg width="594" height="262" viewBox="0 0 594 262" fill="none" xmlns="http://www.w3.org/2000/svg">
<path d="M448.032 174.548L345.118 0.233398L326.635 11.1455L429.549 185.46L448.032 174.548Z" fill="#ffffff"/>
<path d="M177.039 0.233398H98.8454V21.6982H177.039V0.233398Z" fill="#ffffff"/>
<path d="M177.039 82.2595H98.8454V103.724H177.039V82.2595Z" fill="#ffffff"/>
<path d="M177.039 164.286H98.8454V185.75H177.039V164.286Z" fill="#ffffff"/>
<path d="M39.4366 232.085V224.604H0.720703V261.227H39.4366V253.745H10.1381V246.316H39.4366V239.514H10.1381V232.085H39.4366Z" fill="#ffffff"/>
<path d="M44.9649 248.618C44.9649 259.186 53.9114 261.75 68.9269 261.75C82.4775 261.75 91.7379 259.762 91.7379 249.978C91.7379 240.718 82.7914 239.933 68.3514 239.148C57.6783 238.52 55.4809 237.997 55.4809 235.172C55.4809 232.451 57.6783 231.562 66.9388 231.562C76.7224 231.562 80.751 232.556 80.751 236.585H90.1683C90.1683 227.533 81.7973 224.08 67.9852 224.08C54.2776 224.08 46.0636 226.644 46.0636 234.701C46.0636 242.915 52.3941 245.426 68.3514 246.159C80.2278 246.734 82.3205 247.258 82.3205 250.292C82.3205 253.17 79.3383 254.268 69.4501 254.268C57.5214 254.268 54.3823 252.489 54.3823 248.618H44.9649Z" fill="#ffffff"/>
<path d="M139.325 224.604H94.3305V232.504H112.119V261.227H121.536V232.504H139.325V224.604Z" fill="#ffffff"/>
<path d="M173.862 261.227H184.273L165.334 224.604H152.62L133.733 261.227H144.092L148.016 253.431H169.938L173.862 261.227ZM151.522 246.42L159.003 231.562L166.432 246.42H151.522Z" fill="#ffffff"/>
<path d="M223.801 224.604H178.807V232.504H196.595V261.227H206.013V232.504H223.801V224.604Z" fill="#ffffff"/>
<path d="M268.229 232.085V224.604H229.513V261.227H268.229V253.745H238.931V246.316H268.229V239.514H238.931V232.085H268.229Z" fill="#ffffff"/>
<path d="M339.144 224.604V252.123L314.136 224.604H301.37V261.227H310.787V233.759L335.744 261.227H348.562V224.604H339.144Z" fill="#ffffff"/>
<path d="M394.101 232.085V224.604H355.385V261.227H394.101V253.745H364.803V246.316H394.101V239.514H364.803V232.085H394.101Z" fill="#ffffff"/>
<path d="M442.949 238.049C442.949 229.888 437.247 224.604 428.928 224.604H400.153V261.227H409.57V251.443H424.742L430.654 261.227H441.746L434.997 250.344C439.915 248.409 442.949 244.014 442.949 238.049ZM409.57 232.504H426.312C429.137 232.504 433.532 232.504 433.532 238.049C433.532 243.543 429.137 243.543 426.312 243.543H409.57V232.504Z" fill="#ffffff"/>
<path d="M475.228 224.604H448.65V261.227H475.228C484.697 261.227 493.016 255.367 493.016 242.915C493.016 230.463 484.697 224.604 475.228 224.604ZM471.67 253.327H458.067V232.504H471.67C478.785 232.504 483.599 234.021 483.599 242.915C483.599 251.809 478.785 253.327 471.67 253.327Z" fill="#ffffff"/>
<path d="M497.85 248.618C497.85 259.186 506.796 261.75 521.812 261.75C535.362 261.75 544.623 259.762 544.623 249.978C544.623 240.718 535.676 239.933 521.236 239.148C510.563 238.52 508.366 237.997 508.366 235.172C508.366 232.451 510.563 231.562 519.824 231.562C529.607 231.562 533.636 232.556 533.636 236.585H543.053C543.053 227.533 534.682 224.08 520.87 224.08C507.163 224.08 498.948 226.644 498.948 234.701C498.948 242.915 505.279 245.426 521.236 246.159C533.113 246.734 535.205 247.258 535.205 250.292C535.205 253.17 532.223 254.268 522.335 254.268C510.406 254.268 507.267 252.489 507.267 248.618H497.85Z" fill="#ffffff"/>
<path fill-rule="evenodd" clip-rule="evenodd" d="M0.720703 0.233398H88.113V185.75H88.0053C88.0698 179.067 88.0698 172.383 88.0698 165.7C88.0698 164.867 87.7877 164.7 86.9415 164.7C85.8536 164.736 84.7829 164.726 83.7147 164.715H83.7142H83.7138H83.7133H83.7128C82.289 164.702 80.8696 164.688 79.4195 164.783C77.9151 164.867 77.539 164.534 77.539 163.118C77.6017 150.735 77.5808 138.315 77.5599 125.908V125.907V125.906V125.905V125.904C77.5495 119.705 77.539 113.508 77.539 107.321V90.8317C77.539 89.6658 77.1629 89.416 75.8466 89.416C72.7438 89.4992 69.641 89.4992 66.6322 89.416C65.2219 89.3327 64.8458 89.6658 64.8458 90.9983C64.9085 101.775 64.8875 112.551 64.8666 123.302V123.304C64.8562 128.671 64.8458 134.032 64.8458 139.383V185.75H62.3903C62.3069 169.906 62.3069 154.065 62.3069 138.3V88.8327V87.8333C62.2129 87.2504 62.495 87.0005 63.1531 87.0838C63.5258 87.0838 63.9087 87.0747 64.2952 87.0655H64.2953H64.2954H64.2956H64.2957H64.2958H64.296C65.0792 87.047 65.8767 87.028 66.632 87.0838C67.8543 87.1671 68.0424 86.7507 68.0424 85.7513C68.0424 78.5893 68.0424 71.3441 68.1364 64.1821C68.1364 63.266 67.8543 62.9329 66.8201 62.9329H21.6884C20.3721 62.9329 20.2781 63.3493 20.2781 64.2654V83.6694C20.2781 85.0678 20.2781 85.7953 20.6415 86.1738C21.0356 86.5841 21.857 86.5841 23.5689 86.5841C26.0135 86.5841 26.0135 86.5841 26.0135 88.7494V185.75H23.287C23.2903 178.329 23.3119 170.907 23.3335 163.476V163.475V163.474V163.474V163.473V163.472V163.472V163.471V163.471V163.471V163.471C23.357 155.372 23.3806 147.263 23.3806 139.134V90.4154C23.3806 89.1662 23.0045 88.8331 21.5941 88.8331C18.5853 88.9163 15.6706 88.9163 12.6618 88.8331C11.1574 88.7498 10.7813 89.0829 10.7813 90.4986C10.844 102.543 10.8231 114.551 10.8022 126.571V126.571V126.572V126.573V126.573V126.574C10.7918 132.588 10.7813 138.604 10.7813 144.63V163.534C10.7813 164.45 10.4992 164.7 9.46496 164.7C8.2427 164.659 7.04395 164.659 5.84519 164.659H5.84387C4.64545 164.659 3.44702 164.659 2.22509 164.617C1.0968 164.617 0.720703 164.783 0.720703 165.866V0.233398ZM0.720703 165.866C0.804785 172.494 0.813676 179.122 0.747376 185.75H0.720703V165.866ZM73.1503 185.75H67.8505C67.5725 185.457 67.5725 184.943 67.5725 184.021C67.5725 182.782 67.5725 182.138 67.8944 181.803C68.2434 181.439 68.9709 181.439 70.487 181.439H70.4872C71.9546 181.439 72.6586 181.439 72.9964 181.791C73.308 182.115 73.308 182.739 73.308 183.938C73.308 184.861 73.308 185.419 73.1503 185.75ZM83.6741 185.75H78.4432C78.1032 185.365 78.1032 184.639 78.1032 183.271C78.1032 181.356 78.1032 181.356 81.0179 181.356C82.5342 181.356 83.2617 181.356 83.6108 181.719C83.9327 182.055 83.9327 182.699 83.9327 183.938C83.8931 184.885 83.8702 185.433 83.6741 185.75ZM19.7136 184.021C19.7136 184.833 19.7136 185.38 19.6169 185.75H14.375C14.3529 185.461 14.3534 185.073 14.354 184.554L14.3542 184.271C14.3542 182.938 14.3542 182.252 14.6973 181.898C15.0617 181.523 15.8132 181.523 17.363 181.523C18.5144 181.523 19.1018 181.523 19.4015 181.816C19.7136 182.122 19.7136 182.746 19.7136 184.021ZM9.65301 185.353C9.65301 185.498 9.63894 185.631 9.60942 185.75H4.02781C3.91753 185.368 3.91753 184.795 3.91753 183.938C3.91753 182.725 3.91753 182.101 4.22943 181.78C4.56005 181.439 5.24115 181.439 6.64423 181.439C7.00481 181.439 7.32325 181.436 7.60439 181.433H7.60614H7.60772H7.60913H7.61039C8.75647 181.421 9.28087 181.415 9.51279 181.673C9.70843 181.89 9.69596 182.295 9.67299 183.04C9.66383 183.338 9.65301 183.689 9.65301 184.104V185.353ZM47.075 68.2627C47.075 65.2647 47.075 65.2647 43.6901 65.2647C40.2112 65.2647 40.2112 65.2647 40.2112 68.5126C40.2112 70.045 40.2112 70.8353 40.6062 71.243C41.0269 71.6772 41.8958 71.6772 43.6901 71.6772C45.451 71.6772 46.2958 71.6772 46.7011 71.2551C47.075 70.8658 47.075 70.1176 47.075 68.6791V68.2627ZM40.6068 90.4318C41.005 90.8314 41.8042 90.8314 43.408 90.8314C45.3303 90.8314 46.2449 90.8314 46.6665 90.3755C47.0491 89.9617 47.0257 89.1724 46.981 87.6667V87.0838C46.981 84.3356 46.981 84.3356 43.8782 84.3356C41.986 84.3356 41.0702 84.3356 40.627 84.7933C40.2112 85.2225 40.2112 86.0545 40.2112 87.6667C40.2112 89.2437 40.2112 90.0349 40.6068 90.4318ZM46.6908 99.7248C47.075 99.3247 47.075 98.5556 47.075 97.0773C47.075 95.6385 47.075 94.8902 46.7009 94.5102C46.2954 94.0984 45.4506 94.1192 43.6901 94.1625C41.8803 94.1625 41.012 94.1625 40.5954 94.5963C40.2112 94.9964 40.2112 95.7655 40.2112 97.2438C40.2112 98.6286 40.2112 99.3555 40.5742 99.7371C40.9752 100.159 41.8194 100.159 43.5961 100.159C45.4059 100.159 46.2742 100.159 46.6908 99.7248ZM40.3052 78.2562C40.3052 81.0877 40.3052 81.0877 43.5021 81.0877C45.3453 81.0877 46.2376 81.0877 46.6696 80.6418C47.075 80.2233 47.075 79.4122 47.075 77.8398C47.075 76.4813 47.075 75.7746 46.7219 75.407C46.3391 75.0083 45.5412 75.0083 43.8782 75.0083H43.8782H43.8781C42.0349 75.0083 41.1426 75.0083 40.7106 75.4543C40.3052 75.8727 40.3052 76.6839 40.3052 78.2562ZM36.0741 104.323C36.1682 103.573 35.8861 103.323 34.9458 103.323C33.3474 103.406 31.843 103.406 30.2446 103.323C29.4924 103.323 29.1163 103.49 29.2104 104.239C29.273 104.85 29.2522 105.461 29.2313 106.071C29.2208 106.377 29.2104 106.682 29.2104 106.987C29.2104 108.346 29.2104 109.053 29.5634 109.42C29.9463 109.819 30.7442 109.819 32.4072 109.819C36.0741 109.819 36.0741 109.819 36.0741 106.654C36.0741 106.408 36.0639 106.152 36.0536 105.893V105.893V105.893V105.893V105.893V105.893V105.893C36.0326 105.365 36.0111 104.825 36.0741 104.323ZM32.5952 94.0792C29.2104 94.0792 29.2104 94.0792 29.2104 97.0773C29.2104 98.5556 29.2104 99.3247 29.5946 99.7248C30.0112 100.159 30.8795 100.159 32.6893 100.159C34.4501 100.159 35.295 100.159 35.7003 99.7365C36.0741 99.3473 36.0741 98.599 36.0741 97.1606C36.0741 94.0792 36.0741 94.0792 32.5952 94.0792ZM29.5742 137.818C29.9611 138.217 30.7596 138.217 32.4072 138.217C36.0741 138.217 36.0741 138.217 36.0741 135.052C36.0741 132.138 36.0741 132.138 32.8773 132.138C30.9539 132.138 30.0393 132.138 29.6045 132.594C29.2104 133.008 29.2104 133.798 29.2104 135.302C29.2104 136.715 29.2104 137.443 29.5742 137.818ZM32.8773 147.461C36.0741 147.461 36.0741 147.461 36.0741 144.63C36.0741 141.465 36.0741 141.465 32.5952 141.382H32.4072C30.7442 141.382 29.9463 141.382 29.5634 141.78C29.2104 142.148 29.2104 142.855 29.2104 144.213C29.2104 147.461 29.2104 147.461 32.8773 147.461ZM29.5738 128.396C29.9679 128.807 30.7892 128.807 32.501 128.807H32.5012H32.5014C34.3295 128.807 35.2222 128.807 35.6581 128.36C36.0741 127.934 36.0741 127.102 36.0741 125.475C36.0741 122.394 36.0741 122.394 32.7833 122.394C29.2104 122.394 29.2104 122.394 29.2104 125.475V125.892C29.2104 127.29 29.2104 128.018 29.5738 128.396ZM29.6053 118.712C30.0261 119.146 30.8949 119.146 32.6893 119.146C34.4501 119.146 35.295 119.146 35.7003 118.724C36.0741 118.335 36.0741 117.587 36.0741 116.148C36.0741 113.067 36.0741 113.067 32.5952 113.067H32.4072C30.7596 113.067 29.9611 113.067 29.5742 113.466C29.2104 113.841 29.2104 114.569 29.2104 115.982C29.2104 117.514 29.2104 118.304 29.6053 118.712ZM29.5842 185.181C29.9895 185.603 30.8344 185.603 32.5952 185.603C36.0741 185.603 36.0741 185.603 36.0741 182.605C36.0741 181.166 36.0741 180.418 35.7003 180.029C35.295 179.607 34.4501 179.607 32.6893 179.607C30.8636 179.607 29.996 179.607 29.5837 180.04C29.2104 180.432 29.2104 181.18 29.2104 182.605C29.2104 184.043 29.2104 184.792 29.5842 185.181ZM35.6895 175.936C36.0741 175.54 36.0741 174.77 36.0741 173.278H36.1682V173.028C36.1682 171.549 36.1682 170.78 35.7839 170.38C35.3673 169.946 34.499 169.946 32.6893 169.946C29.3044 169.946 29.3044 169.946 29.3044 173.028C29.3044 176.359 29.3044 176.359 32.6893 176.359C34.4347 176.359 35.2801 176.359 35.6895 175.936ZM29.6157 166.086C30.0477 166.532 30.94 166.532 32.7831 166.532H32.7833H32.7835C34.4799 166.532 35.3017 166.532 35.6999 166.121C36.0741 165.735 36.0741 164.986 36.0741 163.534C36.0741 160.453 36.0741 160.453 32.5012 160.453H32.3132C30.7145 160.453 29.9395 160.453 29.5638 160.84C29.2104 161.204 29.2104 161.911 29.2104 163.284C29.2104 164.856 29.2104 165.668 29.6157 166.086ZM33.5083 157.343C34.427 157.411 35.3237 157.477 35.7921 157.121C36.2935 156.733 36.2099 155.974 36.1264 155.215C36.0846 154.836 36.0428 154.457 36.0741 154.123C36.0741 152.739 36.0741 152.012 35.7111 151.63C35.3101 151.209 34.466 151.209 32.6893 151.209H32.6891C30.8794 151.209 30.0112 151.209 29.5946 151.642C29.2104 152.042 29.2104 152.812 29.2104 154.29C29.2104 155.757 29.2104 156.506 29.5849 156.889C29.9757 157.288 30.7746 157.288 32.4072 157.288C32.7598 157.288 33.1358 157.316 33.5083 157.343ZM33.4223 90.8025C34.3721 90.8704 35.3219 90.9384 35.7921 90.5815C36.2868 90.1981 36.2121 89.4544 36.1297 88.6348C36.0869 88.2082 36.042 87.7612 36.0741 87.3336C36.0741 84.169 36.0741 84.169 32.5952 84.169H32.5951C30.8648 84.169 30.019 84.169 29.6056 84.5918C29.2104 84.9961 29.2104 85.7868 29.2104 87.3336V87.9166C29.2104 89.2892 29.2104 89.9964 29.5638 90.3608C29.9395 90.7481 30.7144 90.7481 32.3131 90.7481H32.3132C32.6624 90.7481 33.0423 90.7753 33.4223 90.8025ZM29.5842 75.4304C29.2104 75.8197 29.2104 76.568 29.2104 78.0064C29.2104 79.4848 29.2104 80.2538 29.5946 80.6539C30.0112 81.0877 30.8795 81.0877 32.6893 81.0877C34.4501 81.0877 35.295 81.0877 35.7003 80.6656C36.0741 80.2764 36.0741 79.5281 36.0741 78.0897C36.0741 75.0083 36.0741 75.0083 32.5952 75.0083C30.8344 75.0083 29.9895 75.0083 29.5842 75.4304ZM33.438 71.8266H33.438C34.3803 71.9187 35.2931 72.0078 35.7921 71.5106C36.3718 70.9972 36.2255 69.9891 36.0849 69.0201C36.043 68.7317 36.0017 68.4468 35.9801 68.1795C35.9801 67.7376 35.99 67.3617 35.9985 67.042C36.0212 66.1825 36.0331 65.7293 35.8126 65.4936C35.5667 65.2308 35.0317 65.2385 33.8999 65.2547C33.5782 65.2594 33.2084 65.2647 32.7833 65.2647C29.1163 65.2647 29.1163 65.2647 29.1163 68.5126V69.2621C29.1163 70.4471 29.1163 71.0701 29.4274 71.3976C29.7721 71.7605 30.4989 71.7605 32.0311 71.7605C32.4742 71.7324 32.9599 71.7799 33.438 71.8266ZM42.7795 122.338C41.8192 122.25 40.8475 122.16 40.3993 122.727C39.9551 123.317 40.0938 124.372 40.2187 125.322C40.2525 125.579 40.2852 125.828 40.3052 126.058C40.3052 126.441 40.2984 126.771 40.2924 127.057V127.057C40.2744 127.924 40.265 128.371 40.4843 128.599C40.7186 128.842 41.214 128.834 42.2388 128.817C42.5469 128.812 42.9029 128.807 43.314 128.807H43.3142C45.2706 128.807 46.2092 128.807 46.6596 128.338C47.075 127.905 47.075 127.074 47.075 125.475V125.059C47.075 122.394 47.075 122.311 44.0662 122.394C43.6764 122.421 43.2292 122.379 42.7795 122.338ZM40.5742 113.572C40.2112 113.953 40.2112 114.68 40.2112 116.065C40.2112 119.146 40.2112 119.146 43.6901 119.229C47.075 119.229 47.075 119.229 47.075 116.231C47.075 114.753 47.075 113.984 46.6908 113.584C46.2742 113.15 45.4059 113.15 43.5961 113.15C41.8194 113.15 40.9752 113.15 40.5742 113.572ZM40.5954 137.783C41.012 138.217 41.8803 138.217 43.6901 138.217C45.451 138.217 46.2958 138.217 46.7011 137.795C47.075 137.406 47.075 136.657 47.075 135.219C47.075 132.138 47.075 132.138 43.5021 132.138C40.2112 132.138 40.2112 132.138 40.2112 135.136C40.2112 136.614 40.2112 137.383 40.5954 137.783ZM43.8782 147.461C47.075 147.461 47.075 147.461 47.075 144.63C47.075 143.098 47.075 142.307 46.6804 141.89C46.2599 141.445 45.391 141.425 43.5961 141.382H43.408C41.745 141.382 40.9471 141.382 40.5643 141.78C40.2112 142.148 40.2112 142.855 40.2112 144.213C40.2112 147.461 40.2112 147.461 43.8782 147.461ZM46.6904 151.548C46.2809 151.125 45.4356 151.125 43.6903 151.125H43.6901H43.6899C41.8803 151.125 41.012 151.125 40.5954 151.559C40.2112 151.959 40.2112 152.728 40.2112 154.207C40.2112 155.699 40.2112 156.469 40.5958 156.866C41.0053 157.288 41.8507 157.288 43.5961 157.288C45.4059 157.288 46.2742 157.288 46.6908 156.854C47.075 156.454 47.075 155.685 47.075 154.207C47.075 152.714 47.075 151.945 46.6904 151.548ZM43.314 166.615C47.075 166.615 47.075 166.615 47.075 163.367C47.075 162.023 47.075 161.316 46.7224 160.946C46.3326 160.536 45.5119 160.536 43.7841 160.536C41.9096 160.536 41.0185 160.536 40.595 160.981C40.2112 161.384 40.2112 162.152 40.2112 163.617V163.784C40.2112 166.615 40.2112 166.615 43.314 166.615ZM40.5854 185.192C40.9836 185.603 41.8055 185.603 43.5021 185.603C47.075 185.603 47.075 185.603 47.075 182.522C47.075 181.083 47.075 180.335 46.7011 179.946C46.2958 179.523 45.451 179.523 43.6901 179.523C41.8803 179.523 41.012 179.523 40.5954 179.957C40.2112 180.357 40.2112 181.126 40.2112 182.605C40.2112 184.057 40.2112 184.806 40.5854 185.192ZM47.075 173.278V172.611C47.0622 172.192 47.0616 171.837 47.0611 171.537C47.0598 170.767 47.0591 170.358 46.8548 170.139C46.6227 169.891 46.1281 169.887 45.0717 169.878H45.0716H45.0699C44.7561 169.876 44.3928 169.873 43.9722 169.863C42.0157 169.863 41.077 169.863 40.6266 170.332C40.2112 170.765 40.2112 171.596 40.2112 173.194C40.2112 174.673 40.2112 175.442 40.5954 175.842C41.012 176.276 41.8803 176.276 43.6901 176.276C45.451 176.276 46.2958 176.276 46.7011 175.854C47.075 175.464 47.075 174.716 47.075 173.278ZM41.4335 109.902C42.9379 109.819 44.4423 109.819 45.9467 109.902C46.7929 109.902 47.075 109.736 47.075 108.986C47.0126 108.323 47.033 107.697 47.0538 107.058L47.0538 107.058C47.0643 106.734 47.075 106.408 47.075 106.071C47.075 104.753 47.075 104.067 46.7323 103.71C46.3607 103.323 45.5863 103.323 43.9722 103.323H43.9721C41.9998 103.323 41.0618 103.323 40.6157 103.792C40.2112 104.216 40.2112 105.026 40.2112 106.571C40.2112 106.821 40.2217 107.071 40.2321 107.321C40.253 107.82 40.2739 108.32 40.2112 108.82C40.1172 109.652 40.4933 109.986 41.4335 109.902ZM51.6799 185.181C52.0853 185.603 52.9301 185.603 54.6909 185.603C58.0758 185.603 58.0758 185.603 58.1698 182.522C58.1698 181.083 58.1698 180.335 57.796 179.946C57.3907 179.523 56.5458 179.523 54.785 179.523C52.9752 179.523 52.1069 179.523 51.6903 179.957C51.3061 180.357 51.3061 181.126 51.3061 182.605C51.3061 184.043 51.3061 184.792 51.6799 185.181ZM57.6916 175.925C58.0758 175.525 58.0758 174.756 58.0758 173.278V172.861C58.0758 171.463 58.0758 170.735 57.7124 170.357C57.3183 169.946 56.4969 169.946 54.785 169.946C52.9417 169.946 52.0494 169.946 51.6174 170.392C51.212 170.811 51.212 171.622 51.212 173.194C51.212 174.741 51.212 175.532 51.6073 175.936C52.0207 176.359 52.8665 176.359 54.5969 176.359C56.4067 176.359 57.275 176.359 57.6916 175.925ZM51.691 166.121C52.0931 166.532 52.9154 166.532 54.5967 166.532H54.5969H54.5971C56.4068 166.532 57.275 166.532 57.6916 166.098C58.0758 165.698 58.0758 164.929 58.0758 163.451C58.0758 162.012 58.0758 161.264 57.702 160.875C57.2966 160.453 56.4518 160.453 54.6909 160.453C52.9301 160.453 52.0853 160.453 51.6799 160.875C51.3061 161.264 51.3061 162.012 51.3061 163.451C51.3061 164.958 51.3061 165.727 51.691 166.121ZM57.702 156.866C58.0758 156.477 58.0758 155.728 58.0758 154.29V154.207C58.0758 152.754 58.0758 152.005 57.7016 151.619C57.3034 151.209 56.4816 151.209 54.7852 151.209H54.785H54.7848C52.9751 151.209 52.1069 151.209 51.6903 151.642C51.3061 152.042 51.3061 152.812 51.3061 154.29C51.3061 155.728 51.3061 156.477 51.6799 156.866C52.0853 157.288 52.9301 157.288 54.6909 157.288C56.4518 157.288 57.2966 157.288 57.702 156.866ZM51.5963 147.027C52.0129 147.461 52.8812 147.461 54.6909 147.461C56.4518 147.461 57.2966 147.461 57.702 147.039C58.0758 146.65 58.0758 145.901 58.0758 144.463C58.0758 143.025 58.0758 142.276 57.702 141.887C57.2966 141.465 56.4518 141.465 54.6909 141.465H54.5029C52.7909 141.465 51.9696 141.465 51.5755 141.875C51.212 142.254 51.212 142.981 51.212 144.38C51.212 145.858 51.212 146.627 51.5963 147.027ZM51.6695 137.807C52.0636 138.217 52.885 138.217 54.5969 138.217C56.4067 138.217 57.275 138.217 57.6916 137.783C58.0758 137.383 58.0758 136.614 58.0758 135.136C58.0758 132.138 58.0758 132.138 54.6909 132.138C51.3061 132.138 51.3061 132.138 51.3061 135.136V135.302C51.3061 136.701 51.3061 137.428 51.6695 137.807ZM57.6702 128.455C58.0758 128.04 58.0758 127.229 58.0758 125.642H57.9818V125.142C57.9818 123.864 57.9818 123.199 57.6495 122.853C57.2892 122.477 56.5382 122.477 54.973 122.477C54.5638 122.505 54.1124 122.468 53.6647 122.431H53.6646H53.6645H53.6645H53.6644H53.6643H53.6643C52.775 122.357 51.9004 122.284 51.4001 122.727C50.873 123.194 50.9923 124.029 51.1109 124.859C51.1615 125.214 51.212 125.568 51.212 125.892C51.212 127.33 51.212 128.079 51.5859 128.468C51.9912 128.89 52.836 128.89 54.5967 128.89H54.5969H54.5971C56.3763 128.89 57.2455 128.89 57.6702 128.455ZM51.6799 118.724C52.0853 119.146 52.9301 119.146 54.6909 119.146C56.4518 119.146 57.2966 119.146 57.702 118.724C58.0758 118.335 58.0758 117.587 58.0758 116.148C58.0758 114.641 58.0758 113.871 57.6909 113.478C57.2888 113.067 56.4665 113.067 54.7851 113.067H54.785H54.7849C52.9752 113.067 52.1069 113.067 51.6903 113.501C51.3061 113.901 51.3061 114.67 51.3061 116.148C51.3061 117.587 51.3061 118.335 51.6799 118.724ZM57.6708 109.445C58.0758 109.023 58.0758 108.213 58.0758 106.654H57.9818V106.071C57.9818 104.793 57.9818 104.128 57.6495 103.782C57.2892 103.406 56.5383 103.406 54.9731 103.406H54.973C54.6127 103.406 54.2197 103.37 53.8278 103.334L53.8276 103.334H53.8275H53.8274H53.8273H53.8272C52.8897 103.248 51.9582 103.162 51.4941 103.573C50.8883 104.11 51.0053 105.03 51.1207 105.938L51.1208 105.938C51.1665 106.298 51.212 106.656 51.212 106.987C51.212 108.4 51.212 109.128 51.5759 109.503C51.9628 109.902 52.7613 109.902 54.4089 109.902C56.3165 109.902 57.2317 109.902 57.6708 109.445ZM51.6699 99.7596C52.0568 100.159 52.8553 100.159 54.5029 100.159C58.0758 100.159 58.0758 100.159 58.0758 96.994C58.0758 95.5955 58.0758 94.868 57.7124 94.4896C57.3183 94.0792 56.4969 94.0792 54.785 94.0792C52.9906 94.0792 52.1218 94.0792 51.7011 94.5134C51.3061 94.9211 51.3061 95.7115 51.3061 97.2438C51.3061 98.6564 51.3061 99.3844 51.6699 99.7596ZM54.5029 90.8314C58.0758 90.8314 58.0758 90.8314 58.0758 87.6667H57.9818V87.0005C57.9818 85.7219 57.9818 85.0568 57.6495 84.7108C57.2892 84.3356 56.5382 84.3356 54.973 84.3356C53.032 84.3356 52.0927 84.3356 51.6382 84.805C51.212 85.2451 51.212 86.0978 51.212 87.75C51.212 89.2569 51.212 90.0269 51.5969 90.4203C51.9991 90.8314 52.8214 90.8314 54.5029 90.8314ZM51.6903 80.6539C52.1069 81.0877 52.9752 81.0877 54.785 81.0877C56.4665 81.0877 57.2888 81.0877 57.6909 80.6767C58.0758 80.2832 58.0758 79.5133 58.0758 78.0064C58.0758 76.568 58.0758 75.8197 57.702 75.4304C57.2966 75.0083 56.4518 75.0083 54.6909 75.0083C52.9301 75.0083 52.0852 75.0083 51.6799 75.4304C51.3061 75.8197 51.3061 76.568 51.3061 78.0064C51.3061 79.4848 51.3061 80.2538 51.6903 80.6539ZM57.6912 71.338C58.0758 70.9411 58.0758 70.1716 58.0758 68.6791V68.346C58.0758 66.9076 58.0758 66.1593 57.702 65.7701C57.2966 65.348 56.4518 65.348 54.6909 65.348C52.9263 65.348 52.0568 65.348 51.6283 65.7827C51.212 66.205 51.212 67.0377 51.212 68.6791C51.212 70.1575 51.212 70.9266 51.5963 71.3267C52.0129 71.7605 52.8812 71.7605 54.6909 71.7605C56.4364 71.7605 57.2818 71.7605 57.6912 71.338ZM7.54793 167.029C8.70271 167.021 9.25688 167.017 9.52034 167.292C9.76344 167.545 9.75906 168.036 9.75063 168.98V168.98C9.74892 169.172 9.74704 169.382 9.74704 169.614V170.863C9.74704 171.696 9.37094 172.195 8.33667 172.112H6.92631C5.41001 172.112 4.68251 172.112 4.33347 171.749C4.01155 171.413 4.01155 170.769 4.01155 169.53C4.01155 168.332 4.01155 167.708 4.32308 167.384C4.66087 167.032 5.3649 167.032 6.83228 167.032C7.09335 167.032 7.33122 167.03 7.54793 167.029ZM9.74704 176.692C9.74704 179.107 9.74704 179.107 7.11436 179.107H6.92631C5.42541 179.107 4.69737 179.107 4.34422 178.744C4.01155 178.401 4.01155 177.735 4.01155 176.443C4.01155 175.284 4.01155 174.681 4.3127 174.367C4.63923 174.027 5.31979 174.027 6.73826 174.027C7.08063 174.027 7.38452 174.024 7.65422 174.021C8.76033 174.009 9.29123 174.003 9.54226 174.265C9.77394 174.507 9.76722 174.977 9.7543 175.881C9.75088 176.12 9.74704 176.389 9.74704 176.692ZM14.0722 96.578C14.0722 96.1616 14.4483 95.9118 14.9184 95.9118H16.7989C18.3152 95.9118 19.0427 95.9118 19.3917 96.2752C19.7136 96.6104 19.7136 97.2548 19.7136 98.4934C19.7136 99.7321 19.7136 100.376 19.3917 100.712C19.0427 101.075 18.3152 101.075 16.7989 101.075H15.2004C14.4483 101.158 14.0722 100.659 14.0722 100.159C14.0092 99.3787 14.0305 98.5611 14.0515 97.7561C14.0619 97.3583 14.0722 96.9636 14.0722 96.578ZM19.7136 155.29C19.7136 156.488 19.7136 157.112 19.4021 157.436C19.0643 157.788 18.3603 157.788 16.8929 157.788C15.5722 157.788 14.9386 157.788 14.6346 157.471C14.3542 157.18 14.3542 156.618 14.3542 155.54C14.3542 154.181 14.3542 153.474 14.7073 153.107C15.0901 152.708 15.888 152.708 17.5511 152.708H18.3032C19.4315 152.541 19.9957 152.875 19.7136 153.957V155.29ZM17.269 164.7C15.8016 164.7 15.0976 164.7 14.7598 164.348C14.4483 164.024 14.4483 163.401 14.4483 162.202C14.4483 161.217 14.4483 160.698 14.7074 160.424C14.9958 160.12 15.6052 160.12 16.8929 160.12C18.3603 160.12 19.0643 160.12 19.4021 160.472C19.7136 160.796 19.7136 161.42 19.7136 162.618C19.7136 163.604 19.7136 164.123 19.4545 164.396C19.1661 164.7 18.5567 164.7 17.269 164.7ZM19.7136 169.697C19.7136 170.856 19.7136 171.458 19.4125 171.772C19.0859 172.112 18.4054 172.112 16.9869 172.112C15.6663 172.112 15.0326 172.112 14.7286 171.795C14.4483 171.504 14.4483 170.942 14.4483 169.864C14.4483 168.491 14.4483 167.784 14.8017 167.419C15.1774 167.032 15.9523 167.032 17.5511 167.032C19.7136 167.032 19.7136 167.032 19.7136 169.697ZM17.269 138.717C18.4691 138.717 19.08 138.717 19.3911 139.023C19.7136 139.339 19.7136 139.985 19.7136 141.299C19.7136 142.484 19.7136 143.107 19.4025 143.434C19.0578 143.797 18.3311 143.797 16.7989 143.797C15.5716 143.797 14.9604 143.797 14.6561 143.492C14.3542 143.189 14.3542 142.585 14.3542 141.382C14.4482 138.717 14.4483 138.717 17.269 138.717ZM14.4483 134.137C14.4483 131.305 14.4482 131.305 17.5511 131.305C19.7136 131.305 19.7136 131.305 19.7136 133.97C19.7136 135.129 19.7136 135.732 19.4125 136.045C19.0859 136.385 18.4054 136.385 16.9869 136.385H16.9868C15.6493 136.341 15.0165 136.321 14.7171 135.994C14.4483 135.701 14.4483 135.161 14.4483 134.137ZM19.7136 126.892C19.7136 128.09 19.7136 128.714 19.4021 129.038C19.0643 129.39 18.3603 129.39 16.8929 129.39C15.5722 129.39 14.9386 129.39 14.6346 129.073C14.3542 128.781 14.3542 128.22 14.3542 127.141C14.3542 125.783 14.3542 125.076 14.7073 124.709C15.0901 124.31 15.888 124.31 17.551 124.31H17.5511H18.3032C19.4315 124.143 19.9957 124.476 19.8076 125.559C19.7136 125.975 19.7136 126.475 19.7136 126.892ZM16.9869 107.987C14.5423 107.987 14.5423 107.987 14.5423 105.739C14.5423 104.321 14.5423 103.613 14.8962 103.26C15.2492 102.907 15.9544 102.907 17.363 102.907C18.5631 102.907 19.1741 102.907 19.4851 103.213C19.8076 103.529 19.8076 104.175 19.8076 105.489C19.762 106.701 19.7385 107.326 19.4147 107.647C19.0713 107.987 18.3902 107.987 16.9869 107.987ZM19.7136 112.484C19.7136 113.643 19.7136 114.246 19.4125 114.559C19.0859 114.899 18.4054 114.899 16.9869 114.899C14.3542 114.899 14.3542 114.899 14.3542 112.484C14.3542 111.206 14.3542 110.541 14.6865 110.195C15.0468 109.819 15.7978 109.819 17.363 109.819C19.7136 109.903 19.7136 109.903 19.7136 112.484ZM16.9869 179.107C15.6663 179.107 15.0326 179.107 14.7286 178.791C14.4483 178.499 14.4483 177.938 14.4483 176.859C14.4483 175.5 14.4483 174.794 14.8013 174.426C15.1841 174.027 15.982 174.027 17.6451 174.027C19.8076 174.027 19.8076 174.027 19.8076 176.609C19.8076 177.808 19.8076 178.431 19.4961 178.756C19.1583 179.107 18.4543 179.107 16.9869 179.107ZM16.9869 150.793C15.7735 150.793 15.1623 150.793 14.8545 150.487C14.5423 150.177 14.5423 149.552 14.5423 148.294C14.5423 147.012 14.5423 146.366 14.865 146.042C15.1919 145.713 15.85 145.713 17.175 145.713C18.578 145.713 19.2591 145.713 19.5898 146.053C19.9017 146.374 19.9017 146.998 19.9017 148.211C19.8076 150.793 19.8076 150.793 16.9869 150.793ZM18.0212 121.978H17.269C15.8659 121.978 15.1848 121.978 14.8542 121.638C14.5423 121.317 14.5423 120.692 14.5423 119.48C14.5423 118.441 14.5423 117.9 14.8123 117.619C15.105 117.314 15.7151 117.314 16.9868 117.314H16.9869H16.987C18.5032 117.314 19.2307 117.314 19.5797 117.678C19.9017 118.013 19.9017 118.657 19.9017 119.896V120.313C20.0897 121.645 19.4315 122.145 18.0212 121.978ZM70.3932 109.903H68.7948C67.9486 109.903 67.6665 110.236 67.6665 110.902V112.318C67.6665 114.983 67.6665 114.983 70.6753 114.983C73.402 114.983 73.402 114.983 73.402 112.568C73.402 111.289 73.402 110.624 73.0697 110.278C72.7094 109.903 71.9584 109.903 70.3932 109.903ZM67.9385 103.09C67.6645 103.343 67.665 103.893 67.6663 105.065L67.6665 105.322C67.5865 108.086 67.8468 108.076 69.5479 108.011H69.548H69.5482H69.5483H69.5485C69.8466 108 70.1889 107.987 70.5812 107.987C72.0486 107.987 72.7527 107.987 73.0904 107.635C73.402 107.311 73.402 106.687 73.402 105.489C73.402 104.25 73.402 103.606 73.0801 103.271C72.731 102.907 72.0036 102.907 70.4873 102.907H70.4872C70.1123 102.907 69.7871 102.9 69.5051 102.894L69.5044 102.894C68.6397 102.876 68.1813 102.866 67.9385 103.09ZM73.0064 121.649C73.308 121.339 73.308 120.736 73.308 119.563C73.308 117.314 73.308 117.314 70.7693 117.398C69.2525 117.398 68.5514 117.398 68.2272 117.747C67.9486 118.048 67.9486 118.607 67.9486 119.646C67.9486 120.751 67.9486 121.333 68.2389 121.639C68.5611 121.978 69.2409 121.978 70.6753 121.978H70.6754C72.0295 121.978 72.6871 121.978 73.0064 121.649ZM72.986 124.673C72.637 124.31 71.9095 124.31 70.3932 124.31C70.0524 124.31 69.7522 124.306 69.4879 124.303C68.4732 124.29 67.9862 124.284 67.7563 124.524C67.5442 124.745 67.5511 125.177 67.5644 126.006V126.007V126.007C67.5682 126.241 67.5725 126.507 67.5725 126.808L67.5631 127.098C67.523 128.329 67.504 128.913 67.7857 129.184C68.0396 129.429 68.5378 129.419 69.4851 129.402H69.4852H69.4856H69.486H69.4864C69.776 129.396 70.1077 129.39 70.4872 129.39C71.9546 129.39 72.6586 129.39 72.9964 129.038C73.308 128.714 73.308 128.09 73.308 126.892C73.308 125.653 73.308 125.009 72.986 124.673ZM72.9964 135.95C73.308 135.626 73.308 135.002 73.308 133.804C73.308 132.473 73.308 131.828 72.9857 131.515C72.683 131.222 72.0959 131.222 70.9573 131.222C69.4075 131.222 68.656 131.222 68.2916 131.598C67.9486 131.951 67.9486 132.638 67.9486 133.97C67.9486 135.103 67.9486 135.686 68.2397 135.985C68.5478 136.302 69.1819 136.302 70.487 136.302H70.4872C71.9546 136.302 72.6586 136.302 72.9964 135.95ZM73.0901 139.058C72.7595 138.717 72.0784 138.717 70.6753 138.717C67.6665 138.717 67.6665 138.717 67.7605 140.882C67.7605 143.464 67.7605 143.464 70.7693 143.464C72.1548 143.464 72.8111 143.464 73.1221 143.136C73.402 142.841 73.402 142.281 73.402 141.215C73.402 140.003 73.402 139.379 73.0901 139.058ZM71.405 95.8396C70.1729 95.7532 68.9437 95.6669 67.9486 96.0783C67.2809 96.374 67.4192 97.3415 67.5555 98.2951L67.5555 98.2952C67.6112 98.6845 67.6665 99.0714 67.6665 99.4094V99.6593C67.5725 100.659 68.1366 101.075 69.2649 100.992H70.4872C70.9708 100.98 71.3756 100.98 71.7145 100.98C72.6061 100.98 73.0402 100.98 73.2466 100.763C73.4425 100.557 73.4333 100.156 73.4155 99.375V99.3747V99.3744V99.374C73.4093 99.1016 73.402 98.7829 73.402 98.4101V96.5779C73.402 96.5356 73.4035 96.4933 73.405 96.4517C73.4152 96.1656 73.4243 95.9117 72.9319 95.9117C72.4336 95.9117 71.919 95.8756 71.405 95.8396ZM68.3742 178.827C68.671 179.107 69.2334 179.107 70.2992 179.107C71.849 179.107 72.6005 179.107 72.9649 178.732C73.308 178.378 73.308 177.692 73.308 176.359C73.308 174.027 73.308 174.027 70.6753 174.027C68.0426 174.027 68.0426 174.027 68.0426 176.443C68.0426 177.849 68.0426 178.513 68.3742 178.827ZM69.547 172.112H70.4872H70.4874C71.9393 172.112 72.6438 172.112 72.9857 171.76C73.308 171.428 73.308 170.783 73.308 169.53C73.308 168.124 73.308 167.484 72.9891 167.193C72.7224 166.949 72.2327 166.949 71.3334 166.949C69.3924 166.949 68.4531 166.949 67.9986 167.418C67.5725 167.858 67.5725 168.711 67.5725 170.363C67.5725 171.696 68.0426 172.279 69.547 172.112ZM68.2501 164.372C68.5694 164.7 69.2271 164.7 70.5812 164.7C72.0853 164.7 72.7597 164.7 73.0621 164.365C73.308 164.092 73.308 163.598 73.308 162.701C73.308 161.463 73.308 160.818 72.986 160.483C72.637 160.12 71.9095 160.12 70.3932 160.12C69.1215 160.12 68.5113 160.12 68.2186 160.425C67.9486 160.706 67.9486 161.246 67.9486 162.285C67.9486 163.458 67.9486 164.061 68.2501 164.372ZM67.9048 157.33C68.2651 157.705 69.016 157.705 70.5812 157.705C71.9997 157.705 72.6803 157.705 73.0068 157.365C73.308 157.051 73.308 156.448 73.308 155.29C73.308 154.011 73.308 153.346 72.9757 153C72.6153 152.625 71.8644 152.625 70.2992 152.625H69.0769C67.9486 152.541 67.4784 153.041 67.5725 154.04V155.04C67.5725 156.318 67.5725 156.984 67.9048 157.33ZM73.3805 147.788C73.3598 147.465 73.3399 147.153 73.402 146.878C73.59 145.879 73.0259 145.463 71.9916 145.713H71.2394C68.1366 145.713 68.1366 145.713 68.1366 148.461C68.1366 150.793 68.1366 150.793 70.6753 150.793C72.0784 150.793 72.7595 150.793 73.0901 150.452C73.402 150.131 73.402 149.507 73.402 148.294C73.402 148.125 73.3911 147.955 73.3805 147.788L73.3805 147.788ZM83.8387 169.697C83.8387 167.032 83.8387 167.032 80.8299 167.032C79.4266 167.032 78.7455 167.032 78.4021 167.373C78.0783 167.694 78.0548 168.318 78.0092 169.53C78.0092 170.769 78.0092 171.413 78.3311 171.749C78.6801 172.112 79.4076 172.112 80.9237 172.112H80.9239C83.8387 172.112 83.8387 172.112 83.8387 169.697ZM83.9327 176.692C83.9327 174.027 83.9327 174.027 80.9239 174.027C80.6464 174.027 80.3955 174.026 80.169 174.024C79.0133 174.016 78.4875 174.012 78.2549 174.271C78.0608 174.488 78.0708 174.887 78.0892 175.62C78.0957 175.879 78.1032 176.178 78.1032 176.526C78.1032 177.779 78.1032 178.423 78.4255 178.755C78.7674 179.107 79.4719 179.107 80.9239 179.107C83.9327 179.107 83.9327 179.107 83.9327 176.692ZM43.6893 60.5997H31.6542C30.6199 60.5997 30.2438 60.4331 30.2438 59.4338C30.2438 55.9361 30.2438 55.9361 34.0988 55.9361H55.7244C56.7587 55.9361 57.2288 56.1026 57.1348 57.102C57.1034 57.4628 57.1348 57.8607 57.1661 58.2586C57.2288 59.0544 57.2915 59.8502 56.8527 60.3498C56.3808 60.8872 55.3774 60.7825 54.3967 60.6801C54.0094 60.6397 53.6258 60.5997 53.2798 60.5997H43.6893ZM41.3415 35.9491V44.1105V50.9394C41.3415 52.2443 41.3415 52.9296 41.6837 53.2895C42.0622 53.6876 42.8594 53.6876 44.5383 53.6876C45.6666 53.6876 46.0427 53.4377 46.0427 52.3551V37.5314C46.0427 36.1456 46.0427 35.4375 45.689 35.067C45.3195 34.6799 44.5638 34.6613 43.0185 34.6233L42.7519 34.6167C41.5295 34.6167 41.3415 34.9498 41.3415 35.9491ZM43.3139 26.2064C43.0986 26.1429 42.8012 26.1763 42.5052 26.2096C42.0255 26.2636 41.5497 26.3171 41.4334 25.9566C41.1513 24.874 41.0573 23.6248 41.5274 22.5422C41.6214 22.209 41.8095 21.7927 42.0915 21.4595C42.2416 21.3266 42.3438 21.1512 42.447 20.974C42.6671 20.5962 42.8919 20.2104 43.5959 20.2104C44.3962 20.2104 44.7197 20.7533 45.0301 21.2744C45.0844 21.3655 45.1383 21.456 45.1943 21.5428C46.0009 22.6144 45.9772 23.8087 45.9542 24.9677C45.9503 25.1597 45.9465 25.3508 45.9465 25.5402C45.9465 26.0399 45.5704 26.1232 45.1003 26.1232C44.5362 26.2064 43.972 26.2064 43.3139 26.2064ZM41.5792 31.9108C41.8518 32.2026 42.4367 32.2026 43.6921 32.2026C45.1125 32.2026 45.6571 32.2511 45.8722 32.008C46.0558 31.8005 45.9994 31.3807 46.0427 30.537C46.0427 29.6172 46.0427 29.1207 45.7952 28.8527C45.505 28.5383 44.8743 28.5383 43.504 28.5383C41.3415 28.5383 41.3415 28.5383 41.3415 30.2872C41.3415 31.1796 41.3415 31.6563 41.5792 31.9108Z" fill="#ffffff"/>
<path fill-rule="evenodd" clip-rule="evenodd" d="M457.229 0.233398H544.622V185.75H544.514C544.578 179.067 544.578 172.383 544.578 165.699C544.578 164.867 544.296 164.7 543.45 164.7C542.361 164.736 541.29 164.726 540.221 164.715C538.797 164.702 537.378 164.688 535.928 164.783C534.424 164.867 534.047 164.534 534.047 163.118C534.11 150.734 534.089 138.313 534.068 125.904C534.058 119.705 534.047 113.508 534.047 107.321V90.8316C534.047 89.6657 533.671 89.4158 532.355 89.4158C529.252 89.4991 526.149 89.4991 523.141 89.4158C521.73 89.3326 521.354 89.6657 521.354 90.9981C521.417 101.775 521.396 112.552 521.375 123.304C521.365 128.671 521.354 134.032 521.354 139.383V185.75H518.899C518.815 169.907 518.815 154.066 518.815 138.302V138.3V88.8325V87.8332C518.721 87.2502 519.003 87.0004 519.662 87.0837C520.034 87.0837 520.417 87.0746 520.804 87.0654H520.804H520.804C521.587 87.0468 522.385 87.0279 523.14 87.0837C524.363 87.167 524.551 86.7506 524.551 85.7512V85.7495C524.551 78.588 524.551 71.3434 524.645 64.1819C524.645 63.2659 524.363 62.9328 523.328 62.9328H478.197C476.88 62.9328 476.786 63.3492 476.786 64.2652V83.6692C476.786 85.0677 476.786 85.7952 477.15 86.1737C477.544 86.584 478.365 86.584 480.077 86.584C481.349 86.584 481.959 86.584 482.252 86.8888C482.522 87.17 482.522 87.7104 482.522 88.7493V185.75H479.795C479.799 178.328 479.82 170.905 479.842 163.473V163.472V163.471C479.865 155.373 479.889 147.264 479.889 139.133V90.4152C479.889 89.166 479.513 88.8329 478.102 88.8329C475.094 88.9162 472.179 88.9162 469.17 88.8329C467.666 88.7496 467.29 89.0828 467.29 90.4985C467.352 102.543 467.331 114.551 467.311 126.571V126.571C467.3 132.586 467.29 138.603 467.29 144.63V163.534C467.29 164.45 467.008 164.7 465.973 164.7C464.751 164.658 463.552 164.658 462.353 164.658C461.155 164.658 459.956 164.658 458.733 164.617C457.627 164.617 457.244 164.777 457.229 165.805V0.233398ZM529.659 185.75H524.359C524.081 185.457 524.081 184.943 524.081 184.021C524.081 182.782 524.081 182.138 524.403 181.803C524.752 181.439 525.479 181.439 526.996 181.439C528.463 181.439 529.167 181.439 529.505 181.791C529.816 182.115 529.816 182.739 529.816 183.938C529.816 184.861 529.816 185.419 529.659 185.75ZM540.182 185.75H534.952C534.612 185.365 534.612 184.639 534.612 183.271C534.612 181.356 534.612 181.356 537.526 181.356C539.043 181.356 539.77 181.356 540.119 181.719C540.441 182.055 540.441 182.699 540.441 183.938C540.401 184.885 540.379 185.433 540.182 185.75ZM460.536 185.75H466.118C466.147 185.631 466.161 185.498 466.161 185.353V184.104C466.161 183.689 466.172 183.338 466.181 183.04C466.204 182.294 466.217 181.89 466.021 181.672C465.789 181.415 465.265 181.42 464.119 181.433C463.836 181.436 463.516 181.439 463.153 181.439C461.75 181.439 461.068 181.439 460.738 181.78C460.426 182.101 460.426 182.725 460.426 183.938C460.426 184.795 460.426 185.368 460.536 185.75ZM470.883 185.75H476.125C476.222 185.38 476.222 184.832 476.222 184.021C476.222 182.746 476.222 182.122 475.91 181.816C475.61 181.522 475.023 181.522 473.871 181.522C470.863 181.522 470.863 181.522 470.863 184.271C470.863 184.369 470.862 184.463 470.862 184.553C470.862 185.072 470.861 185.461 470.883 185.75ZM457.229 185.75H457.256C457.322 179.133 457.313 172.516 457.229 165.899V185.75ZM503.583 68.2626C503.583 65.2646 503.583 65.2646 500.198 65.2646C498.419 65.2646 497.55 65.2646 497.125 65.6991C496.72 66.1142 496.72 66.9257 496.72 68.5125C496.72 70.0448 496.72 70.8352 497.115 71.2428C497.535 71.6771 498.404 71.6771 500.198 71.6771C503.583 71.6771 503.583 71.6771 503.583 68.679V68.2626ZM497.115 90.4316C497.513 90.8312 498.313 90.8312 499.916 90.8312C501.839 90.8312 502.753 90.8312 503.175 90.3753C503.558 89.9616 503.534 89.1723 503.489 87.6666V87.0837C503.489 84.3355 503.489 84.3355 500.387 84.3355C498.494 84.3355 497.579 84.3355 497.135 84.7931C496.72 85.2224 496.72 86.0543 496.72 87.6666C496.72 89.2436 496.72 90.0347 497.115 90.4316ZM503.199 99.7247C503.583 99.3246 503.583 98.5555 503.583 97.0772C503.583 94.0791 503.583 94.0791 500.198 94.1624C498.389 94.1624 497.52 94.1624 497.104 94.5962C496.72 94.9963 496.72 95.7653 496.72 97.2437C496.72 98.6285 496.72 99.3554 497.083 99.7369C497.484 100.158 498.328 100.158 500.104 100.158C501.914 100.158 502.783 100.158 503.199 99.7247ZM497.167 80.689C497.549 81.0876 498.347 81.0876 500.01 81.0876C501.854 81.0876 502.746 81.0876 503.178 80.6416C503.583 80.2232 503.583 79.412 503.583 77.8397C503.583 76.4812 503.583 75.7745 503.23 75.4068C502.847 75.0082 502.05 75.0082 500.387 75.0082C498.543 75.0082 497.651 75.0082 497.219 75.4542C496.814 75.8726 496.814 76.6838 496.814 78.2561C496.814 79.6146 496.814 80.3213 497.167 80.689ZM492.583 104.322C492.677 103.573 492.394 103.323 491.454 103.323C489.856 103.406 488.351 103.406 486.753 103.323C486.001 103.323 485.625 103.49 485.719 104.239C485.781 104.85 485.761 105.461 485.74 106.071C485.729 106.377 485.719 106.682 485.719 106.987C485.719 108.346 485.719 109.053 486.072 109.42C486.455 109.819 487.253 109.819 488.916 109.819C490.839 109.819 491.754 109.819 492.188 109.362C492.583 108.948 492.583 108.159 492.583 106.654C492.583 106.407 492.572 106.152 492.562 105.893V105.893V105.893C492.541 105.365 492.519 104.825 492.583 104.322ZM486.093 94.5012C485.719 94.8904 485.719 95.6387 485.719 97.0772C485.719 98.5555 485.719 99.3246 486.103 99.7247C486.52 100.158 487.388 100.158 489.198 100.158C490.959 100.158 491.803 100.158 492.209 99.7364C492.583 99.3471 492.583 98.5988 492.583 97.1604C492.583 95.6821 492.583 94.913 492.198 94.5129C491.782 94.0791 490.913 94.0791 489.104 94.0791C487.343 94.0791 486.498 94.0791 486.093 94.5012ZM486.083 137.818C486.47 138.217 487.268 138.217 488.916 138.217C492.583 138.217 492.583 138.217 492.583 135.052C492.583 133.64 492.583 132.912 492.219 132.537C491.832 132.138 491.033 132.138 489.386 132.138C487.462 132.138 486.548 132.138 486.113 132.594C485.719 133.008 485.719 133.798 485.719 135.302C485.719 136.715 485.719 137.443 486.083 137.818ZM489.386 147.461C492.583 147.461 492.583 147.461 492.583 144.629C492.583 143.098 492.583 142.307 492.188 141.89C491.767 141.445 490.899 141.425 489.104 141.382H488.916C487.253 141.382 486.455 141.382 486.072 141.78C485.719 142.148 485.719 142.855 485.719 144.213C485.719 147.461 485.719 147.461 489.386 147.461ZM486.082 128.396C486.476 128.806 487.298 128.806 489.009 128.806H489.01H489.01C490.838 128.806 491.731 128.806 492.166 128.36C492.583 127.934 492.583 127.102 492.583 125.475C492.583 122.394 492.583 122.394 489.292 122.394C485.719 122.394 485.719 122.394 485.719 125.475V125.892C485.719 127.29 485.719 128.018 486.082 128.396ZM486.114 118.712C486.534 119.146 487.403 119.146 489.198 119.146C490.959 119.146 491.803 119.146 492.209 118.724C492.583 118.335 492.583 117.586 492.583 116.148C492.583 114.67 492.583 113.901 492.198 113.501C491.782 113.067 490.913 113.067 489.104 113.067H488.916C487.268 113.067 486.47 113.067 486.083 113.466C485.719 113.841 485.719 114.569 485.719 115.981C485.719 117.514 485.719 118.304 486.114 118.712ZM485.719 182.605C485.719 185.603 485.719 185.603 489.104 185.603C492.583 185.603 492.583 185.603 492.583 182.605C492.583 179.607 492.583 179.607 489.198 179.607C485.719 179.607 485.719 179.607 485.719 182.605ZM492.198 175.936C492.583 175.539 492.583 174.77 492.583 173.277H492.677V173.028C492.677 171.549 492.677 170.78 492.292 170.38C491.876 169.946 491.007 169.946 489.198 169.946C485.813 169.946 485.813 169.946 485.813 173.028C485.813 176.359 485.813 176.359 489.198 176.359C490.943 176.359 491.788 176.359 492.198 175.936ZM486.124 166.086C486.556 166.532 487.448 166.532 489.291 166.532H489.292H489.292C490.988 166.532 491.81 166.532 492.208 166.121C492.583 165.735 492.583 164.986 492.583 163.534C492.583 162.069 492.583 161.301 492.199 160.897C491.775 160.452 490.884 160.452 489.01 160.452H488.822C487.223 160.452 486.448 160.452 486.072 160.84C485.719 161.204 485.719 161.911 485.719 163.284C485.719 164.856 485.719 165.667 486.124 166.086ZM490.017 157.343C490.935 157.411 491.832 157.477 492.3 157.121C492.802 156.733 492.718 155.974 492.635 155.215C492.593 154.836 492.551 154.456 492.583 154.123C492.583 152.738 492.583 152.012 492.22 151.63C491.818 151.209 490.974 151.209 489.198 151.209H489.197C487.388 151.209 486.52 151.209 486.103 151.642C485.719 152.042 485.719 152.811 485.719 154.29C485.719 155.757 485.719 156.506 486.093 156.889C486.484 157.288 487.283 157.288 488.916 157.288C489.268 157.288 489.644 157.316 490.017 157.343ZM489.931 90.8023C490.88 90.8703 491.83 90.9383 492.3 90.5814C492.795 90.198 492.72 89.4543 492.638 88.6346C492.595 88.2081 492.55 87.7611 492.583 87.3335C492.583 85.8011 492.583 85.0108 492.188 84.6031C491.767 84.1689 490.898 84.1689 489.104 84.1689C487.373 84.1689 486.527 84.1689 486.114 84.5917C485.719 84.9959 485.719 85.7867 485.719 87.3335V87.9165C485.719 89.289 485.719 89.9963 486.072 90.3606C486.448 90.7479 487.223 90.7479 488.821 90.7479H488.822C489.171 90.7479 489.551 90.7751 489.931 90.8023ZM486.093 75.4303C485.719 75.8196 485.719 76.5678 485.719 78.0063C485.719 79.4846 485.719 80.2537 486.103 80.6538C486.52 81.0876 487.388 81.0876 489.198 81.0876C490.959 81.0876 491.803 81.0876 492.209 80.6655C492.583 80.2762 492.583 79.528 492.583 78.0895C492.583 76.6112 492.583 75.8421 492.198 75.442C491.782 75.0082 490.913 75.0082 489.104 75.0082C487.343 75.0082 486.498 75.0082 486.093 75.4303ZM489.946 71.8265H489.946C490.889 71.9185 491.801 72.0077 492.3 71.5105C492.88 70.9971 492.734 69.989 492.593 69.0199C492.551 68.7316 492.51 68.4467 492.488 68.1793C492.488 67.7375 492.498 67.3616 492.507 67.0419C492.53 66.1823 492.542 65.7292 492.321 65.4935C492.075 65.2307 491.54 65.2383 490.408 65.2546C490.087 65.2593 489.717 65.2646 489.292 65.2646C487.384 65.2646 486.469 65.2646 486.03 65.7218C485.625 66.1435 485.625 66.9542 485.625 68.5125V69.262C485.625 70.447 485.625 71.07 485.936 71.3974C486.281 71.7603 487.007 71.7603 488.539 71.7603C488.983 71.7323 489.468 71.7798 489.946 71.8265ZM499.288 122.338C498.328 122.249 497.356 122.16 496.908 122.727C496.463 123.317 496.602 124.372 496.727 125.322C496.761 125.579 496.794 125.828 496.814 126.058C496.814 126.441 496.807 126.771 496.801 127.056V127.057C496.783 127.923 496.773 128.371 496.993 128.599C497.227 128.842 497.722 128.834 498.747 128.817C499.055 128.812 499.411 128.806 499.822 128.806H499.823C501.779 128.806 502.718 128.806 503.168 128.337C503.583 127.905 503.583 127.074 503.583 125.475V125.059C503.583 122.394 503.583 122.311 500.575 122.394C500.185 122.421 499.738 122.379 499.288 122.338L499.288 122.338ZM497.083 113.572C496.72 113.953 496.72 114.68 496.72 116.065C496.72 119.146 496.72 119.146 500.198 119.229C503.583 119.229 503.583 119.229 503.583 116.231C503.583 114.753 503.583 113.984 503.199 113.584C502.783 113.15 501.914 113.15 500.104 113.15C498.328 113.15 497.484 113.15 497.083 113.572ZM497.104 137.783C497.52 138.217 498.389 138.217 500.198 138.217C503.583 138.217 503.583 138.217 503.583 135.219C503.583 132.138 503.583 132.138 500.01 132.138C498.314 132.138 497.492 132.138 497.094 132.548C496.72 132.934 496.72 133.683 496.72 135.136C496.72 136.614 496.72 137.383 497.104 137.783ZM500.387 147.461C503.583 147.461 503.583 147.461 503.583 144.629C503.583 143.098 503.583 142.307 503.189 141.89C502.768 141.445 501.899 141.425 500.104 141.382H499.916C498.253 141.382 497.455 141.382 497.073 141.78C496.72 142.148 496.72 142.855 496.72 144.213C496.72 147.461 496.72 147.461 500.387 147.461ZM503.583 154.207C503.583 151.125 503.583 151.125 500.198 151.125C498.389 151.125 497.52 151.125 497.104 151.559C496.72 151.959 496.72 152.728 496.72 154.207C496.72 157.288 496.72 157.288 500.104 157.288C503.583 157.288 503.583 157.288 503.583 154.207ZM503.179 166.147C503.583 165.722 503.583 164.912 503.583 163.367C503.583 162.022 503.583 161.316 503.231 160.946C502.841 160.536 502.02 160.536 500.293 160.536C498.418 160.536 497.527 160.536 497.103 160.981C496.72 161.384 496.72 162.152 496.72 163.617V163.784C496.72 165.156 496.72 165.863 497.073 166.228C497.449 166.615 498.224 166.615 499.822 166.615C501.795 166.615 502.733 166.615 503.179 166.147ZM496.72 182.605C496.72 185.603 496.72 185.603 500.01 185.603C503.583 185.603 503.583 185.603 503.583 182.521C503.583 179.523 503.583 179.523 500.198 179.523C498.389 179.523 497.52 179.523 497.104 179.957C496.72 180.357 496.72 181.126 496.72 182.605ZM503.583 173.277V172.611C503.571 172.191 503.57 171.837 503.569 171.537C503.568 170.767 503.567 170.358 503.363 170.139C503.131 169.89 502.636 169.887 501.58 169.878H501.58H501.578C501.264 169.876 500.901 169.873 500.481 169.863C498.524 169.863 497.585 169.863 497.135 170.332C496.72 170.764 496.72 171.596 496.72 173.194C496.72 174.673 496.72 175.442 497.104 175.842C497.52 176.275 498.389 176.275 500.198 176.275C503.583 176.275 503.583 176.275 503.583 173.277ZM497.942 109.902C499.446 109.819 500.951 109.819 502.455 109.902C503.301 109.902 503.583 109.736 503.583 108.986C503.521 108.323 503.541 107.697 503.562 107.058L503.562 107.058C503.573 106.734 503.583 106.407 503.583 106.071C503.583 104.753 503.583 104.067 503.241 103.71C502.869 103.323 502.095 103.323 500.481 103.323H500.481H500.48C498.508 103.323 497.57 103.323 497.124 103.792C496.72 104.216 496.72 105.026 496.72 106.571C496.72 106.821 496.73 107.071 496.74 107.32C496.761 107.82 496.782 108.32 496.72 108.819C496.626 109.652 497.002 109.985 497.942 109.902ZM507.814 182.605C507.814 185.603 507.814 185.603 511.199 185.603C514.584 185.603 514.584 185.603 514.678 182.521C514.678 181.083 514.678 180.335 514.304 179.945C513.899 179.523 513.054 179.523 511.293 179.523C509.484 179.523 508.615 179.523 508.199 179.957C507.814 180.357 507.814 181.126 507.814 182.605ZM514.2 175.925C514.584 175.525 514.584 174.756 514.584 173.277V172.861C514.584 171.463 514.584 170.735 514.221 170.357C513.827 169.946 513.005 169.946 511.293 169.946C507.72 169.946 507.72 169.946 507.72 173.194C507.72 176.359 507.72 176.359 511.105 176.359C512.915 176.359 513.783 176.359 514.2 175.925ZM508.199 166.121C508.601 166.532 509.424 166.532 511.105 166.532H511.105H511.105C512.915 166.532 513.783 166.532 514.2 166.098C514.584 165.698 514.584 164.929 514.584 163.451C514.584 160.452 514.584 160.452 511.199 160.452C509.438 160.452 508.594 160.452 508.188 160.875C507.814 161.264 507.814 162.012 507.814 163.451C507.814 164.957 507.814 165.727 508.199 166.121ZM511.199 157.288C514.584 157.288 514.584 157.288 514.584 154.29V154.207C514.584 152.754 514.584 152.005 514.21 151.619C513.812 151.209 512.99 151.209 511.294 151.209H511.293H511.293C509.484 151.209 508.615 151.209 508.199 151.642C507.814 152.042 507.814 152.811 507.814 154.29C507.814 155.728 507.814 156.477 508.188 156.866C508.594 157.288 509.438 157.288 511.199 157.288ZM508.105 147.027C508.521 147.461 509.39 147.461 511.199 147.461C514.584 147.461 514.584 147.461 514.584 144.463C514.584 141.465 514.584 141.465 511.199 141.465H511.011C509.299 141.465 508.478 141.465 508.084 141.875C507.72 142.254 507.72 142.981 507.72 144.38C507.72 145.858 507.72 146.627 508.105 147.027ZM508.178 137.807C508.572 138.217 509.393 138.217 511.105 138.217C512.915 138.217 513.783 138.217 514.2 137.783C514.584 137.383 514.584 136.614 514.584 135.136C514.584 132.138 514.584 132.138 511.199 132.138C509.438 132.138 508.594 132.138 508.188 132.56C507.814 132.949 507.814 133.697 507.814 135.136V135.302C507.814 136.701 507.814 137.428 508.178 137.807ZM514.179 128.455C514.584 128.04 514.584 127.229 514.584 125.642H514.49V125.142C514.49 123.864 514.49 123.198 514.158 122.852C513.798 122.477 513.047 122.477 511.481 122.477C511.072 122.505 510.621 122.468 510.173 122.43H510.173H510.173C509.283 122.357 508.409 122.284 507.908 122.727C507.381 123.194 507.501 124.029 507.619 124.859C507.67 125.214 507.72 125.568 507.72 125.892C507.72 128.89 507.72 128.89 511.105 128.89H511.105C512.885 128.89 513.754 128.89 514.179 128.455ZM508.188 118.724C508.594 119.146 509.438 119.146 511.199 119.146C514.584 119.146 514.584 119.146 514.584 116.148C514.584 114.641 514.584 113.871 514.199 113.478C513.797 113.067 512.975 113.067 511.293 113.067C509.484 113.067 508.615 113.067 508.199 113.501C507.814 113.901 507.814 114.67 507.814 116.148C507.814 117.586 507.814 118.335 508.188 118.724ZM514.179 109.445C514.584 109.023 514.584 108.213 514.584 106.654H514.49V106.071C514.49 104.793 514.49 104.128 514.158 103.782C513.798 103.406 513.047 103.406 511.481 103.406C511.121 103.406 510.728 103.37 510.336 103.334C509.398 103.248 508.467 103.162 508.002 103.573C507.397 104.11 507.514 105.03 507.629 105.938C507.675 106.298 507.72 106.656 507.72 106.987C507.72 109.902 507.72 109.902 510.917 109.902H510.917C512.825 109.902 513.74 109.902 514.179 109.445ZM508.178 99.7594C508.565 100.158 509.364 100.158 511.011 100.158C514.584 100.158 514.584 100.158 514.584 96.9939C514.584 95.5954 514.584 94.8679 514.221 94.4895C513.827 94.0791 513.005 94.0791 511.293 94.0791C509.499 94.0791 508.63 94.0791 508.209 94.5133C507.814 94.921 507.814 95.7113 507.814 97.2437C507.814 98.6562 507.814 99.3842 508.178 99.7594ZM511.011 90.8312C514.584 90.8312 514.584 90.8312 514.584 87.6666H514.49V87.0004C514.49 85.7218 514.49 85.0567 514.158 84.7106C513.798 84.3355 513.047 84.3355 511.481 84.3355C509.54 84.3355 508.601 84.3355 508.147 84.8049C507.72 85.2449 507.72 86.0977 507.72 87.7499C507.72 89.2568 507.72 90.0267 508.105 90.4202C508.507 90.8312 509.33 90.8312 511.011 90.8312ZM508.199 80.6538C508.615 81.0876 509.484 81.0876 511.293 81.0876C512.975 81.0876 513.797 81.0876 514.199 80.6765C514.584 80.2831 514.584 79.5131 514.584 78.0063C514.584 75.0082 514.584 75.0082 511.199 75.0082C509.438 75.0082 508.594 75.0082 508.188 75.4303C507.814 75.8196 507.814 76.5678 507.814 78.0063C507.814 79.4846 507.814 80.2537 508.199 80.6538ZM511.199 71.7603C514.584 71.7603 514.584 71.7603 514.584 68.679V68.3459C514.584 65.3479 514.584 65.3479 511.199 65.3479C509.435 65.3479 508.565 65.3479 508.137 65.7826C507.72 66.2049 507.72 67.0375 507.72 68.679C507.72 70.1574 507.72 70.9265 508.105 71.3265C508.521 71.7603 509.39 71.7603 511.199 71.7603ZM464.056 167.029C465.211 167.021 465.765 167.017 466.029 167.292C466.272 167.545 466.267 168.036 466.259 168.98C466.257 169.172 466.255 169.382 466.255 169.614V170.863C466.255 171.696 465.879 172.195 464.845 172.112H463.435H463.434C461.918 172.112 461.191 172.112 460.842 171.748C460.52 171.413 460.52 170.769 460.52 169.53C460.52 168.332 460.52 167.708 460.831 167.384C461.169 167.032 461.873 167.032 463.341 167.032C463.602 167.032 463.84 167.03 464.056 167.029ZM466.255 176.692C466.255 179.107 466.255 179.107 463.623 179.107H463.435C461.934 179.107 461.206 179.107 460.853 178.743C460.52 178.401 460.52 177.735 460.52 176.442C460.52 174.027 460.52 174.027 463.247 174.027C463.589 174.027 463.893 174.024 464.162 174.021C465.269 174.008 465.8 174.003 466.051 174.265C466.282 174.507 466.276 174.977 466.263 175.881C466.259 176.12 466.255 176.389 466.255 176.692ZM470.581 96.5779C470.581 96.1615 470.957 95.9116 471.427 95.9116H473.307H473.307C474.824 95.9116 475.551 95.9116 475.9 96.2751C476.222 96.6103 476.222 97.2547 476.222 98.4933C476.222 99.7319 476.222 100.376 475.9 100.711C475.551 101.075 474.824 101.075 473.307 101.075H471.709C470.957 101.158 470.581 100.659 470.581 100.159C470.518 99.3786 470.539 98.561 470.56 97.756C470.57 97.3582 470.581 96.9635 470.581 96.5779ZM476.222 155.29C476.222 156.488 476.222 157.112 475.91 157.436C475.573 157.788 474.869 157.788 473.401 157.788C470.863 157.788 470.863 157.788 470.863 155.539C470.863 154.181 470.863 153.474 471.216 153.107C471.598 152.708 472.396 152.708 474.059 152.708H474.812C475.94 152.541 476.504 152.874 476.222 153.957V155.29ZM473.777 164.7C472.31 164.7 471.606 164.7 471.268 164.348C470.957 164.024 470.957 163.4 470.957 162.202C470.957 160.12 470.957 160.12 473.401 160.12C474.869 160.12 475.573 160.12 475.91 160.471C476.222 160.796 476.222 161.419 476.222 162.618C476.222 163.603 476.222 164.122 475.963 164.396C475.674 164.7 475.065 164.7 473.777 164.7ZM476.222 169.697C476.222 170.856 476.222 171.458 475.921 171.772C475.594 172.112 474.914 172.112 473.495 172.112H473.495C470.957 172.112 470.957 172.112 470.957 169.863C470.957 168.491 470.957 167.784 471.31 167.419C471.686 167.032 472.461 167.032 474.059 167.032C475.066 167.032 475.604 167.032 475.891 167.3C476.222 167.609 476.222 168.272 476.222 169.697ZM473.777 138.717C474.977 138.717 475.588 138.717 475.899 139.022C476.222 139.339 476.222 139.984 476.222 141.299C476.222 142.484 476.222 143.107 475.911 143.434C475.566 143.797 474.839 143.797 473.307 143.797C470.863 143.797 470.863 143.797 470.863 141.382C470.909 140.075 470.932 139.409 471.277 139.069C471.635 138.717 472.34 138.717 473.777 138.717ZM470.957 134.137C470.957 131.305 470.957 131.305 474.059 131.305C476.222 131.305 476.222 131.305 476.222 133.97C476.222 135.129 476.222 135.732 475.921 136.045C475.594 136.385 474.914 136.385 473.495 136.385H473.495C470.957 136.302 470.957 136.302 470.957 134.137ZM476.222 126.891C476.222 128.09 476.222 128.714 475.91 129.038C475.573 129.39 474.869 129.39 473.401 129.39C470.863 129.39 470.863 129.39 470.863 127.141C470.863 125.783 470.863 125.076 471.216 124.708C471.598 124.31 472.396 124.31 474.059 124.31H474.059H474.812C475.94 124.143 476.504 124.476 476.316 125.559C476.222 125.975 476.222 126.475 476.222 126.891ZM473.495 107.987C471.051 107.987 471.051 107.987 471.051 105.739C471.051 104.321 471.051 103.613 471.405 103.26C471.758 102.907 472.463 102.907 473.871 102.907C475.071 102.907 475.682 102.907 475.993 103.213C476.316 103.529 476.316 104.174 476.316 105.489C476.27 106.701 476.247 107.325 475.923 107.647C475.58 107.987 474.899 107.987 473.495 107.987ZM476.222 112.484C476.222 113.643 476.222 114.246 475.921 114.559C475.594 114.899 474.914 114.899 473.495 114.899H473.495C470.863 114.899 470.863 114.899 470.863 112.484C470.863 109.819 470.863 109.819 473.871 109.819C475.01 109.86 475.597 109.88 475.9 110.184C476.222 110.508 476.222 111.153 476.222 112.484ZM473.495 179.107C470.957 179.107 470.957 179.107 470.957 176.859C470.957 174.027 470.957 174.027 474.153 174.027C476.316 174.027 476.316 174.027 476.316 176.609C476.316 177.808 476.316 178.431 476.004 178.756C475.667 179.107 474.963 179.107 473.495 179.107ZM473.495 150.792C471.051 150.792 471.051 150.792 471.051 148.294C471.051 147.012 471.051 146.366 471.373 146.042C471.7 145.712 472.358 145.712 473.683 145.712C475.086 145.712 475.768 145.712 476.098 146.053C476.41 146.374 476.41 146.998 476.41 148.211C476.364 149.463 476.341 150.108 476.007 150.44C475.652 150.792 474.947 150.792 473.495 150.792ZM474.53 121.978H473.777C472.374 121.978 471.693 121.978 471.363 121.638C471.051 121.316 471.051 120.692 471.051 119.48C471.051 117.314 471.051 117.314 473.495 117.314C475.012 117.314 475.739 117.314 476.088 117.678C476.41 118.013 476.41 118.657 476.41 119.896V120.312C476.598 121.645 475.94 122.145 474.53 121.978ZM526.902 109.902H525.303C524.457 109.902 524.175 110.236 524.175 110.902V112.318C524.175 114.982 524.175 114.982 527.184 114.982C529.91 114.982 529.91 114.982 529.91 112.567C529.91 111.289 529.91 110.624 529.578 110.278C529.218 109.902 528.467 109.902 526.902 109.902ZM524.447 103.09C524.154 103.361 524.175 103.972 524.175 105.322C524.095 108.086 524.355 108.076 526.056 108.011C526.354 108 526.697 107.987 527.09 107.987C528.557 107.987 529.261 107.987 529.599 107.635C529.91 107.311 529.91 106.687 529.91 105.489C529.91 104.25 529.91 103.606 529.588 103.27C529.239 102.907 528.512 102.907 526.996 102.907C525.47 102.907 524.769 102.793 524.447 103.09ZM529.515 121.649C529.816 121.339 529.816 120.736 529.816 119.563C529.816 117.314 529.816 117.314 527.278 117.398C525.761 117.398 525.06 117.398 524.736 117.747C524.457 118.048 524.457 118.607 524.457 119.646C524.457 120.751 524.457 121.333 524.747 121.638C525.069 121.978 525.749 121.978 527.184 121.978C528.538 121.978 529.195 121.978 529.515 121.649ZM529.494 124.673C529.145 124.31 528.418 124.31 526.902 124.31C525.253 124.31 524.554 124.221 524.265 124.524C523.993 124.808 524.081 125.437 524.081 126.808C524.036 128.239 523.991 128.893 524.294 129.184C524.626 129.503 525.374 129.39 526.996 129.39C528.463 129.39 529.167 129.39 529.505 129.038C529.816 128.714 529.816 128.09 529.816 126.891C529.816 125.653 529.816 125.008 529.494 124.673ZM529.505 135.95C529.816 135.626 529.816 135.002 529.816 133.804C529.816 132.472 529.816 131.828 529.494 131.515C529.191 131.222 528.604 131.222 527.466 131.222C525.916 131.222 525.164 131.222 524.8 131.597C524.457 131.951 524.457 132.637 524.457 133.97C524.457 135.103 524.457 135.685 524.748 135.985C525.056 136.302 525.69 136.302 526.996 136.302C528.463 136.302 529.167 136.302 529.505 135.95ZM529.598 139.057C529.268 138.717 528.587 138.717 527.184 138.717C524.175 138.717 524.175 138.717 524.269 140.882C524.269 143.464 524.269 143.464 527.278 143.464C528.663 143.464 529.32 143.464 529.63 143.136C529.91 142.841 529.91 142.281 529.91 141.215C529.91 140.003 529.91 139.379 529.598 139.057ZM527.913 95.8395C526.681 95.753 525.452 95.6668 524.457 96.0782C523.789 96.3738 523.928 97.3414 524.064 98.295C524.12 98.6843 524.175 99.0713 524.175 99.4093V99.6592C524.081 100.659 524.645 101.075 525.773 100.992H526.996C528.752 100.948 529.47 101.062 529.755 100.763C530.019 100.485 529.91 99.8527 529.91 98.41V96.5778C529.91 96.5355 529.912 96.4932 529.913 96.4516C529.924 96.1655 529.933 95.9116 529.44 95.9116C528.942 95.9116 528.427 95.8755 527.913 95.8395ZM524.551 176.442C524.551 179.107 524.551 179.107 526.808 179.107C528.357 179.107 529.109 179.107 529.473 178.732C529.816 178.378 529.816 177.692 529.816 176.359C529.816 174.027 529.816 174.027 527.184 174.027C524.551 174.027 524.551 174.027 524.551 176.442ZM526.055 172.112H526.996C528.448 172.112 529.152 172.112 529.494 171.76C529.816 171.428 529.816 170.783 529.816 169.53C529.816 168.124 529.816 167.484 529.497 167.192C529.231 166.949 528.741 166.949 527.842 166.949C525.901 166.949 524.961 166.949 524.507 167.418C524.081 167.858 524.081 168.711 524.081 170.363C524.081 171.695 524.551 172.278 526.055 172.112ZM524.758 164.371C525.078 164.7 525.735 164.7 527.09 164.7C529.816 164.7 529.816 164.7 529.816 162.701C529.816 161.463 529.816 160.818 529.494 160.483C529.145 160.12 528.418 160.12 526.902 160.12C525.63 160.12 525.02 160.12 524.727 160.425C524.457 160.706 524.457 161.246 524.457 162.285C524.457 163.458 524.457 164.061 524.758 164.371ZM524.413 157.329C524.773 157.705 525.524 157.705 527.09 157.705C529.816 157.705 529.816 157.705 529.816 155.29C529.816 154.011 529.816 153.346 529.484 153C529.124 152.625 528.373 152.625 526.808 152.625H525.585C524.457 152.541 523.987 153.041 524.081 154.04V155.04C524.081 156.318 524.081 156.983 524.413 157.329ZM529.889 147.788C529.868 147.465 529.848 147.153 529.91 146.878C530.098 145.879 529.534 145.463 528.5 145.712H527.748C524.645 145.712 524.645 145.712 524.645 148.461C524.645 150.792 524.645 150.792 527.184 150.792C528.587 150.792 529.268 150.792 529.598 150.452C529.91 150.131 529.91 149.507 529.91 148.294C529.91 148.124 529.899 147.955 529.889 147.788ZM540.347 169.697C540.347 167.032 540.347 167.032 537.338 167.032C535.935 167.032 535.254 167.032 534.911 167.372C534.587 167.694 534.563 168.318 534.518 169.53C534.518 170.769 534.518 171.413 534.839 171.748C535.188 172.112 535.916 172.112 537.432 172.112C540.347 172.112 540.347 172.112 540.347 169.697ZM540.441 176.692C540.441 174.027 540.441 174.027 537.432 174.027C535.739 174.027 535.042 173.961 534.763 174.271C534.501 174.564 534.612 175.191 534.612 176.526C534.612 177.778 534.612 178.423 534.934 178.755C535.276 179.107 535.98 179.107 537.432 179.107C540.441 179.107 540.441 179.107 540.441 176.692Z" fill="#ffffff"/>
<path fill-rule="evenodd" clip-rule="evenodd" d="M318.091 0.233398H230.698V185.75H240.762C240.766 181.847 240.773 177.947 240.779 174.048C240.8 162.028 240.821 150.02 240.759 137.976C240.759 136.56 241.135 136.227 242.639 136.31C245.648 136.393 248.563 136.393 251.571 136.31C252.982 136.31 253.358 136.643 253.358 137.892V185.75H255.988V107.422C255.988 104.637 255.988 104.637 253.543 104.637C251.97 104.637 251.148 104.637 250.72 104.226C250.253 103.779 250.253 102.843 250.253 100.887V75.9275C250.253 74.7491 250.347 74.2135 251.663 74.2135H296.795C297.829 74.2135 298.111 74.642 298.111 75.8204C298.017 85.033 298.017 94.3528 298.017 103.565C298.017 104.851 297.829 105.387 296.607 105.279C295.851 105.208 295.053 105.232 294.27 105.256C293.883 105.268 293.5 105.279 293.128 105.279C292.47 105.172 292.187 105.494 292.281 106.244V107.529V171.161V171.163C292.281 176.02 292.281 180.883 292.283 185.75H294.823C294.824 180.769 294.834 175.781 294.844 170.786V170.781V170.779C294.865 160.028 294.886 149.252 294.823 138.475C294.823 137.143 295.199 136.81 296.609 136.893C299.618 136.976 302.721 136.976 305.824 136.893C307.14 136.893 307.516 137.143 307.516 138.309V154.798C307.516 160.985 307.527 167.182 307.537 173.382C307.544 177.504 307.551 181.627 307.555 185.75H318.091V0.233398ZM273.665 77.213C277.05 77.213 277.05 77.213 277.05 81.0694V81.605C277.05 83.6171 277.05 84.5793 276.569 85.0396C276.128 85.4615 275.284 85.4615 273.665 85.4615C272.016 85.4615 271.149 85.4615 270.692 85.0284C270.186 84.5475 270.186 83.5326 270.186 81.3908C270.186 77.213 270.186 77.213 273.665 77.213ZM273.383 110.1C270.186 110.1 270.186 110.1 270.186 106.029C270.186 103.776 270.186 102.707 270.719 102.201C271.2 101.744 272.114 101.744 273.853 101.744C276.955 101.744 276.955 101.744 276.955 105.279V106.029C277.05 110.1 277.05 110.1 273.383 110.1ZM277.05 118.134C277.05 120.202 277.05 121.191 276.555 121.664C276.103 122.098 275.234 122.098 273.571 122.098C271.936 122.098 271.091 122.098 270.654 121.675C270.186 121.223 270.186 120.287 270.186 118.349C270.186 116.281 270.186 115.292 270.68 114.819C271.133 114.385 272.001 114.385 273.665 114.385C275.285 114.334 276.129 114.307 276.57 114.716C277.05 115.161 277.05 116.123 277.05 118.134ZM273.477 97.5665C271.948 97.5665 271.15 97.5665 270.734 97.168C270.28 96.7334 270.28 95.8245 270.28 93.9243C270.28 91.7266 270.28 90.6849 270.8 90.1913C271.268 89.7465 272.159 89.7465 273.853 89.7465C275.382 89.7465 276.179 89.7465 276.596 90.1449C277.05 90.5796 277.05 91.4884 277.05 93.3887C277.05 95.5864 277.05 96.628 276.529 97.1217C276.061 97.5665 275.17 97.5665 273.477 97.5665ZM260.219 126.169C261.818 126.276 263.322 126.276 264.92 126.169C265.861 126.169 266.143 126.49 266.049 127.454C265.986 128.101 266.007 128.795 266.028 129.474C266.038 129.807 266.049 130.136 266.049 130.454C266.049 132.56 266.049 133.576 265.541 134.067C265.067 134.524 264.151 134.524 262.382 134.524C260.853 134.524 260.055 134.524 259.639 134.126C259.185 133.691 259.185 132.782 259.185 130.882C259.185 130.489 259.195 130.096 259.206 129.704C259.227 128.918 259.248 128.133 259.185 127.347C259.091 126.383 259.467 126.169 260.219 126.169ZM259.185 118.134C259.185 114.278 259.185 114.278 262.57 114.278C264.234 114.278 265.102 114.278 265.555 114.711C266.049 115.184 266.049 116.174 266.049 118.241C266.049 120.253 266.049 121.216 265.568 121.676C265.127 122.098 264.283 122.098 262.664 122.098C259.185 122.098 259.185 122.098 259.185 118.134ZM262.382 171.053C260.868 171.053 260.071 171.053 259.652 170.656C259.185 170.213 259.185 169.278 259.185 167.304C259.185 165.198 259.185 164.181 259.693 163.691C260.167 163.233 261.082 163.233 262.852 163.233C264.365 163.233 265.162 163.233 265.582 163.631C266.049 164.074 266.049 165.009 266.049 166.983C266.049 169.089 266.049 170.105 265.541 170.596C265.067 171.053 264.151 171.053 262.382 171.053ZM266.049 179.302C266.049 182.944 266.049 182.944 262.852 182.944C259.185 182.944 259.185 182.944 259.185 178.766C259.185 176.866 259.185 175.957 259.639 175.523C260.055 175.124 260.853 175.124 262.382 175.124H262.57C264.218 175.175 265.085 175.202 265.541 175.648C266.049 176.145 266.049 177.159 266.049 179.302ZM262.476 158.948C260.902 158.948 260.081 158.948 259.652 158.538C259.185 158.091 259.185 157.155 259.185 155.199V154.664C259.185 150.7 259.185 150.7 262.758 150.7C266.049 150.7 266.049 150.7 266.049 154.664C266.049 156.936 266.049 158.003 265.516 158.504C265.044 158.948 264.154 158.948 262.476 158.948ZM262.664 146.522C259.185 146.522 259.185 146.522 259.185 142.451C259.185 140.477 259.185 139.543 259.652 139.1C260.071 138.702 260.868 138.702 262.382 138.702H262.57C264.234 138.702 265.102 138.702 265.555 139.136C266.049 139.609 266.049 140.598 266.049 142.666C266.049 144.678 266.049 145.64 265.568 146.1C265.127 146.522 264.283 146.522 262.664 146.522ZM265.767 109.779C265.296 110.238 264.347 110.15 263.397 110.063C263.017 110.028 262.637 109.993 262.288 109.993C260.819 109.993 260.046 109.993 259.638 109.607C259.185 109.177 259.185 108.269 259.185 106.351V105.601C259.185 103.44 259.185 102.427 259.691 101.951C260.138 101.53 260.981 101.53 262.57 101.53C264.218 101.53 265.086 101.53 265.542 101.963C266.049 102.444 266.049 103.459 266.049 105.601C266.016 106.151 266.061 106.726 266.104 107.274C266.187 108.329 266.261 109.285 265.767 109.779ZM259.185 93.6029C259.185 91.5909 259.185 90.6286 259.666 90.1684C260.106 89.7465 260.951 89.7465 262.57 89.7465C264.234 89.7465 265.102 89.7465 265.555 90.1801C266.049 90.6531 266.049 91.6421 266.049 93.71C266.049 95.7221 266.049 96.6843 265.568 97.1446C265.127 97.5665 264.283 97.5665 262.664 97.5665C259.185 97.5665 259.185 97.5665 259.185 93.6029ZM265.767 85.2473C265.268 85.8868 264.355 85.7721 263.413 85.6537C262.934 85.5936 262.449 85.5326 262.006 85.5686C259.091 85.5686 259.091 85.5686 259.091 82.3549V81.3908C259.091 77.213 259.091 77.213 262.758 77.213C263.183 77.213 263.553 77.2061 263.874 77.2002H263.874H263.874H263.874C264.917 77.1809 265.454 77.171 265.724 77.4341C266.01 77.7126 265.998 78.2968 265.973 79.4992C265.965 79.9104 265.955 80.3939 265.955 80.9623C265.976 81.3062 266.018 81.6727 266.059 82.0436C266.2 83.2901 266.346 84.5868 265.767 85.2473ZM270.374 151.128C270.822 150.399 271.794 150.514 272.754 150.628C273.204 150.681 273.651 150.734 274.041 150.7C277.05 150.593 277.05 150.7 277.05 154.128V154.664C277.05 156.899 277.05 157.968 276.515 158.48C276.026 158.948 275.087 158.948 273.289 158.948C272.878 158.948 272.522 158.956 272.214 158.962H272.214H272.213C271.271 158.982 270.776 158.993 270.52 158.751C270.238 158.483 270.247 157.908 270.267 156.698V156.697C270.273 156.331 270.28 155.906 270.28 155.413C270.26 155.117 270.227 154.797 270.193 154.467C270.068 153.244 269.93 151.888 270.374 151.128ZM270.186 142.559C270.186 140.62 270.186 139.684 270.654 139.232C271.091 138.809 271.936 138.809 273.571 138.809C275.234 138.809 276.103 138.809 276.555 139.243C277.05 139.716 277.05 140.705 277.05 142.773C277.05 144.785 277.05 145.747 276.569 146.207C276.128 146.629 275.284 146.629 273.665 146.629C270.186 146.522 270.186 146.522 270.186 142.559ZM273.665 171.053C272.001 171.053 271.133 171.053 270.68 170.62C270.186 170.147 270.186 169.158 270.186 167.09C270.186 165.06 270.186 164.098 270.666 163.643C271.098 163.233 271.918 163.233 273.477 163.233C277.05 163.233 277.05 163.233 277.05 167.197C277.05 169.209 277.05 170.171 276.569 170.632C276.128 171.053 275.284 171.053 273.665 171.053ZM277.05 179.302C277.05 182.944 277.05 182.944 273.853 182.944C270.186 182.944 270.186 182.944 270.186 178.766C270.186 176.866 270.186 175.957 270.64 175.523C271.056 175.124 271.854 175.124 273.383 175.124H273.571C275.218 175.175 276.086 175.202 276.542 175.648C277.05 176.145 277.05 177.159 277.05 179.302ZM275.921 134.631C274.417 134.524 272.912 134.524 271.408 134.631C270.468 134.738 270.092 134.31 270.186 133.239C270.248 132.596 270.228 131.953 270.207 131.311L270.207 131.31C270.196 130.989 270.186 130.668 270.186 130.346C270.186 128.184 270.186 127.141 270.707 126.638C271.193 126.169 272.132 126.169 273.947 126.169C275.431 126.169 276.205 126.169 276.609 126.555C277.05 126.977 277.05 127.859 277.05 129.704C277.05 130.136 277.039 130.556 277.028 130.973L277.028 130.973C277.008 131.794 276.987 132.6 277.05 133.453C277.05 134.417 276.767 134.631 275.921 134.631ZM284.665 182.944C281.187 182.944 281.187 182.944 281.187 178.981C281.187 177.025 281.187 176.089 281.654 175.641C282.082 175.231 282.904 175.231 284.477 175.231H284.665C286.284 175.231 287.129 175.231 287.57 175.653C288.05 176.113 288.05 177.076 288.05 179.088C288.05 181.1 288.05 182.062 287.57 182.522C287.129 182.944 286.284 182.944 284.665 182.944ZM284.571 171.053C282.998 171.053 282.176 171.053 281.748 170.643C281.281 170.196 281.281 169.26 281.281 167.304V167.09C281.281 165.078 281.281 164.116 281.761 163.655C282.202 163.233 283.047 163.233 284.665 163.233C286.284 163.233 287.129 163.233 287.57 163.655C288.05 164.116 288.05 165.078 288.05 167.09C288.05 169.158 288.05 170.147 287.556 170.62C287.103 171.053 286.235 171.053 284.571 171.053ZM288.05 154.878C288.05 157.094 288.05 158.135 287.531 158.623C287.071 159.056 286.205 159.056 284.571 159.056C281.187 159.056 281.187 159.056 281.187 155.199C281.187 154.782 281.136 154.327 281.085 153.871C280.967 152.803 280.848 151.729 281.375 151.128C281.875 150.558 282.75 150.652 283.639 150.747C284.087 150.795 284.538 150.843 284.948 150.807C287.956 150.807 287.956 150.807 287.956 154.235V154.878H288.05ZM284.665 146.522C283.047 146.522 282.202 146.522 281.761 146.1C281.281 145.64 281.281 144.678 281.281 142.666C281.281 140.598 281.281 139.609 281.775 139.136C282.228 138.702 283.096 138.702 284.76 138.702C286.303 138.702 287.123 138.702 287.558 139.111C288.05 139.574 288.05 140.561 288.05 142.666C288.05 144.678 288.05 145.64 287.57 146.1C287.129 146.522 286.284 146.522 284.665 146.522ZM288.05 130.454C288.05 132.633 288.05 133.676 287.53 134.174C287.052 134.631 286.137 134.631 284.383 134.631C281.187 134.631 281.187 134.631 281.187 130.882C281.187 130.456 281.141 129.995 281.095 129.532C280.98 128.365 280.863 127.18 281.469 126.49C281.933 125.961 282.864 126.072 283.802 126.183L283.802 126.183C284.194 126.229 284.587 126.276 284.948 126.276C287.956 126.276 287.956 126.276 287.956 129.704V130.454H288.05ZM284.477 122.098C282.964 122.098 282.167 122.098 281.747 121.7C281.281 121.257 281.281 120.323 281.281 118.349C281.281 116.207 281.281 115.192 281.787 114.711C282.244 114.278 283.111 114.278 284.76 114.278C286.333 114.278 287.155 114.278 287.583 114.688C288.05 115.135 288.05 116.071 288.05 118.027C288.05 122.098 288.05 122.098 284.477 122.098ZM288.05 106.029C288.05 110.1 288.05 110.1 284.477 110.1C281.187 110.1 281.187 110.1 281.187 106.136C281.187 103.827 281.187 102.732 281.733 102.213C282.226 101.744 283.164 101.744 284.948 101.744C287.956 101.744 287.956 101.744 287.956 105.172V106.029H288.05ZM284.76 97.5665C283.096 97.5665 282.228 97.5665 281.775 97.1329C281.281 96.6598 281.281 95.6708 281.281 93.6029C281.281 91.5909 281.281 90.6286 281.761 90.1684C282.202 89.7465 283.047 89.7465 284.665 89.7465C286.284 89.7465 287.129 89.7465 287.57 90.1684C288.05 90.6286 288.05 91.5909 288.05 93.6029C288.05 95.7074 288.05 96.6945 287.558 97.1575C287.123 97.5665 286.303 97.5665 284.76 97.5665ZM288.05 81.605C288.05 83.691 288.05 84.6792 287.557 85.1473C287.113 85.5686 286.269 85.5686 284.665 85.5686C281.187 85.5686 281.187 85.5686 281.187 81.605C281.187 77.3201 281.187 77.3201 284.665 77.3201C286.284 77.3201 287.129 77.3201 287.57 77.742C288.05 78.2022 288.05 79.1645 288.05 81.1765V81.605ZM244.896 143.389C244.425 143.389 244.049 143.639 244.049 144.055C244.049 144.441 244.039 144.835 244.029 145.233C244.008 146.038 243.986 146.856 244.049 147.636C244.049 148.136 244.425 148.635 245.178 148.552H246.776C249.691 148.552 249.691 148.552 249.691 145.97C249.691 143.389 249.691 143.389 246.776 143.389H244.896ZM244.779 179.17C244.425 179.534 244.425 180.241 244.425 181.614C244.425 183.779 244.425 183.779 246.964 183.862H246.964C248.383 183.862 249.063 183.862 249.39 183.522C249.691 183.209 249.691 182.606 249.691 181.447C249.691 178.782 249.691 178.782 247.528 178.782C245.93 178.782 245.155 178.782 244.779 179.17ZM249.379 176.515C249.691 176.191 249.691 175.567 249.691 174.369C249.691 173.952 249.691 173.453 249.785 173.036C249.973 171.954 249.409 171.62 248.28 171.787H247.528C245.865 171.787 245.067 171.787 244.685 172.186C244.331 172.553 244.331 173.26 244.331 174.618C244.331 176.867 244.331 176.867 246.87 176.867C248.338 176.867 249.042 176.867 249.379 176.515ZM244.52 153.216C244.52 155.464 244.52 155.464 246.964 155.464C248.367 155.464 249.049 155.464 249.392 155.124C249.716 154.803 249.739 154.179 249.785 152.966C249.785 150.384 249.785 150.384 247.34 150.384C245.932 150.384 245.226 150.384 244.873 150.737C244.52 151.09 244.52 151.798 244.52 153.216ZM249.39 162.036C249.691 161.723 249.691 161.12 249.691 159.961C249.691 158.63 249.691 157.985 249.368 157.662C249.066 157.358 248.479 157.337 247.34 157.296C244.331 157.296 244.331 157.296 244.331 159.961C244.331 162.376 244.331 162.376 246.964 162.376C248.383 162.376 249.063 162.376 249.39 162.036ZM247.246 169.455H247.998C249.409 169.622 250.067 169.122 249.879 167.79V167.373C249.879 166.135 249.879 165.49 249.557 165.155C249.208 164.792 248.48 164.792 246.964 164.792C244.52 164.792 244.52 164.792 244.52 166.957C244.52 168.17 244.52 168.794 244.831 169.115C245.162 169.455 245.843 169.455 247.246 169.455ZM298.772 157.38H300.37C301.936 157.38 302.687 157.38 303.047 157.755C303.379 158.101 303.379 158.766 303.379 160.045C303.379 161.203 303.379 161.806 303.078 162.12C302.752 162.46 302.071 162.46 300.653 162.46C299.087 162.46 298.336 162.46 297.976 162.084C297.644 161.738 297.644 161.073 297.644 159.795V158.379C297.644 157.713 297.926 157.38 298.772 157.38ZM297.644 152.542C297.642 151.371 297.642 150.82 297.916 150.567C298.159 150.343 298.617 150.353 299.482 150.371C299.764 150.377 300.089 150.384 300.464 150.384C301.981 150.384 302.708 150.384 303.057 150.748C303.379 151.083 303.379 151.727 303.379 152.966C303.379 154.165 303.379 154.788 303.068 155.112C302.73 155.464 302.026 155.464 300.558 155.464C300.166 155.464 299.823 155.477 299.525 155.488C297.824 155.553 297.564 155.563 297.644 152.799C297.644 152.71 297.644 152.625 297.644 152.542ZM303.285 167.04C303.285 168.213 303.285 168.816 302.984 169.126C302.664 169.455 302.007 169.455 300.653 169.455C299.218 169.455 298.538 169.455 298.216 169.116C297.926 168.81 297.926 168.228 297.926 167.123C297.926 166.084 297.926 165.525 298.204 165.224C298.529 164.875 299.23 164.875 300.747 164.875C302.067 164.831 302.7 164.811 303.005 165.117C303.285 165.4 303.285 165.961 303.285 167.04ZM300.37 171.787C301.887 171.787 302.614 171.787 302.963 172.15C303.285 172.486 303.285 173.13 303.285 174.369C303.285 175.567 303.285 176.191 302.974 176.515C302.636 176.867 301.932 176.867 300.464 176.867C300.084 176.867 299.752 176.873 299.462 176.879C298.515 176.896 298.017 176.906 297.763 176.661C297.481 176.39 297.5 175.807 297.54 174.575C297.543 174.482 297.547 174.386 297.55 174.285C297.55 173.983 297.545 173.718 297.542 173.483C297.528 172.654 297.521 172.223 297.734 172.001C297.963 171.761 298.45 171.767 299.465 171.78C299.729 171.783 300.03 171.787 300.37 171.787ZM303.285 181.281C303.285 182.479 303.285 183.103 302.974 183.427C302.636 183.779 301.932 183.779 300.464 183.779C299.159 183.779 298.525 183.779 298.217 183.462C297.926 183.163 297.926 182.58 297.926 181.447C297.926 180.115 297.926 179.428 298.269 179.075C298.633 178.699 299.385 178.699 300.935 178.699C302.073 178.699 302.66 178.699 302.963 178.992C303.285 179.305 303.285 179.95 303.285 181.281ZM297.926 143.555C298.921 143.144 300.15 143.23 301.382 143.317C301.896 143.353 302.411 143.389 302.909 143.389C303.402 143.389 303.392 143.643 303.382 143.929C303.381 143.97 303.379 144.013 303.379 144.055V145.887C303.379 146.26 303.387 146.579 303.393 146.852C303.411 147.633 303.42 148.034 303.224 148.24C303.017 148.457 302.583 148.457 301.692 148.457C301.353 148.457 300.948 148.457 300.464 148.469H299.242C298.114 148.552 297.55 148.136 297.644 147.136V146.886C297.644 146.549 297.588 146.162 297.533 145.772L297.533 145.772C297.396 144.819 297.258 143.851 297.926 143.555ZM261.631 71.2145H273.667H283.257C283.603 71.2145 283.987 71.266 284.374 71.318C285.355 71.4496 286.358 71.5843 286.83 70.8931C287.269 70.2504 287.206 69.2267 287.143 68.2031C287.112 67.6913 287.081 67.1795 287.112 66.7153C287.206 65.4298 286.736 65.2155 285.702 65.2155H264.076C260.221 65.2155 260.221 65.2155 260.221 69.7147C260.221 71.0002 260.597 71.2145 261.631 71.2145Z" fill="#ffffff"/>
<path d="M571.865 15.8628V2.82527H576.264V0.233398H564.404V2.82267H568.793V15.8628H571.862H571.865ZM580.629 15.8628V5.46924H580.778L584.462 13.9065H586.456L590.12 5.46664H590.267V15.8628H593.032V0.236003H589.936L585.525 10.3795H585.424L581.013 0.236003H577.899V15.8628H580.634H580.629Z" fill="#ffffff"/>
</svg>
